<mxfile host="65bd71144e">
    <diagram id="9oQnxPmDbjmVsUnNbDTT" name="Page-1">
        <mxGraphModel dx="1599" dy="569" grid="1" gridSize="10" guides="1" tooltips="1" connect="1" arrows="1" fold="1" page="1" pageScale="1" pageWidth="850" pageHeight="1100" math="0" shadow="0">
            <root>
                <mxCell id="0"/>
                <mxCell id="1" parent="0"/>
                <mxCell id="2" value="" style="shape=image;verticalLabelPosition=bottom;labelBackgroundColor=default;verticalAlign=top;aspect=fixed;imageAspect=0;image=data:image/png,iVBORw0KGgoAAAANSUhEUgAABc8AAAIsCAYAAAAkmVEYAAAAAXNSR0IArs4c6QAAAARnQU1BAACxjwv8YQUAAAAJcEhZcwAADsMAAA7DAcdvqGQAAPeFSURBVHhe7N0LvE11/v/xr5lfQlSkXLpJFNUvl1EhTf1LlJDbuESaLjMazeinUtMQJTVTRCpEqdw5ojSijEwNDcWIbpS7Su4qHNLMnL/31/pu6yxrX845e+9zez0fj/XYe92/67vW3nvtz/quzyqRmZmZZQAAAAAAAAAAQMTPvFcAAAAAAAAAAOA5puX57NmzvXcAAKRHy5YtvXfhSpcu7b0DAAAAAADI7sCBA9675AoNnrdq1crrK3i2bNliqlev7vUBAAq76dOnEzwHAAAAAAC5lqrgOWlbAAAAAAAAAAAIIHgOAAAAAAAAAEAAwXMAAAAAAAAAAAIIngMAAAAAAAAAEEDwHAAAAAAAAACAAILnAAAAAAAAAAAEFJvg+Y8HjRn4wI+20/tEbFz3X9Ph2gPmf0/fn6P5ENv7779vSpQoYbtHH33UG1q0TJo0qchuGwAAAAAAAFAcpCV4vnfvXpORkWHGjx9v1qxZ4w1NLhcc/2jpf7whiXtz5r/N6Kd/8vqOqnbuz8yrfyttxr9eyhuSd7t27TLXXXddJHisToHWVPniiy9Mly5d7Hr9FNhVEDs/XH755SYrK8tMnDjRG5JaqoO6detG6lvvNQwAAAAAAAAAokl58HzLli1m7ty5pl69eqZUqeQFoXPq+MOr7v/E8bbT+/xUvnx5s3r1ahtA1uvs2bOPCW4juWrXrm127txp67xPnz5m2LBh5sCBA95YAAAAIDHBhhn+7pRTTjEdO3Y0r732mvnxxx+9OfKPznlVrr/97W/ekOw0XOOrVq1q/vWvf3lDsxs9erSd5o033vCGFA5uP6X7btCwxlLBrlGjRmbQoEH2v3JBpXqj0REAAGkInutETCeQlStX9oYkn1qONzh3v5k+8d+me5uDNs2K0q0o7YqoNbqGqfO3MHdpWf74hx/Nc4MPRabR8hKh6dw8d3Y9aL7bk+WNyZkzzzzTlClTxp5oqZW4O0EJ9ivYe+edd2Y78dKJWazAe8WKFc1JJ53k9R1VtmxZO07LvP/++82sWbMifwK0DhdY1kmTf32utbrWqencCbk6fwv6sD8ViZ64+tfpL4uWqbKOGTMmMj43rfarVatmNm7caDIzM22/luGW519mvG0Ufwoadf7W/LrjQvNreLz9BAAAgMLl7LPPNk2bNjXNmjWLdOedd56ZPn26adeunXn66afNv/+d2P+KVLn00ktNuXLlzLJly7whR6lRyQcffGBOO+00s2/fvtBpDh06ZM/B69SpY84//3xvKBKhxjsDBgwwf/nLX7J1ffv2tXX/0EMP2eMkVXdmAwCA5CgSOc9vaPc/Ztm6E8yvuv2PTbHyyTcn2HQrSrsi9S75uR32l2ePt/2OS8ui4b/vU9JOo07Li0cB+a83Z0Xm6fF/x5lp4xI7Od6zZ4+pVauWDap26tTJ3H777aZ06dLe2OiGDBliTj/9dHuypVbUnTt3NsOHD7ctXGL5/vvv7fQK/CowrWD0t99+64015ocffrB3ByxevDgSUF6+fLl91Umd1qdOreQVZHfBbAWgdTKtefwt6NXdfffdZsSIEXa+RYsWmR49epj77rvPzheLyli9evXIOq+44gozc+ZMb6wx8+bNMyeccEKkPLlptb9gwQKbOsbVW9euXSPrUz0tXLgwssxo2ygKlN911112uJtfy3UGDx5sbr755sjwt956yxsDAACAwk6NI9Qa++233450Op/++uuvzY033mjP01euXOlNnT/OOOMM87//+79m1apVtmGHn/4DqHxt2rQxLVq0sOe2wWn0P+KTTz4xF198sW0UhcSdddZZ5g9/+IN54IEHsnVqcf7ee++Zxx9/3F68mDBhgvnPf3KeehQAAKRHkQie54cP3/9vttbqavG+7dv/JvRQUX/almnTpplevXrZAG1OKQivYG8satGulu2iYL1OiMOCzQryKoCv7vnnn48Egf2tshXw//jjjyMBdm1H79697TxqxS7RyuNv6R2NgvIKXHfr1i2yTr1fv369N8WRFhz6oyJq/TJlypS4Fw9EfxhURi1TdFHA8bce1zRLliyJbEesbVQQXilgorXCGThwYKQedUHAvx0AAAAomtTYRS2K1VhF5/z5Sa3KFTxft26d2b17tzf0iE2bNtnguRqrXHTRRfY8P5hGZPPmzeazzz6zKTjVgh3Jcfzxx9tjRC361WhJFzIAAEDBRPA8D1wrd9flJp+6WiScc845cYPgcvXVV5v+/ftHgrwKePtbOsei5e/fv9+eoCmQrJNfFwyORgF9PeTVBfr1qmByPApmq1xNmjSxZVXr7ERayMuJJ56YrSW3On+gO7dcznMte8aMGdlSs6g1vlrHa12aRtMCAAAAuaVGITrf9qeu1Ll1tBzc0cYp7YvuwlR6GJ1XqzHLM888Y1asWBF1WX5qAKLAt1qPq0W8n4aJWpVfdtllNpAebNCjwLlSuij9i2i7lJZQnRq9qFw6x//9739vG/aI/nOMGjXKXHXVVZEGKnqvYRrn+Je1bds28+STT0buztVytd1haW+++uorc88999hUjPrvoBShqg/VheokXqMknfNrW2+77TZbdrc+/UcI5qnXMtVwR/ngdcew1qe7f9UwKK8qVKhgTj31VLuN//3vkXSj4sp3xx132G1U+fSqfg3XeMcdN/pvo/QvbpvU6b3bx36aXy3e3bTaprZt25q///3v2crhKHWPGiw1bNjQlkWvamzl7kYGAKCoKzLBcwWtK1X5mdnyVc7zjlc9s0TCrcadM84qYfOn5zbPuaPWHBs2bIgEsv2tyUeOHGkD3aKTE6VM8QeWlW4kHp0w68RdraQvuOAC06BBA/tgoG+++cabIjqVQydIrmwZGRmRk+JYdBKnFu5qaa5y6mQ2kRyJrqypfJinytG+fXt7sq91aBtVRreNSq3i6jweXczQbZY5TRsDAACAokmBRp13v/zyyzYgeckll3hjck5B1aeeesqeu27fvt3mym7VqpUZOnSoDXxqWCJ0/q/nHX366afekCPlVEBYDWuUu1252hs3bmzvwHQpRDSNzuN/8Ytf2MY+fgrKKiWJhv/ud7+zDYIUhFUQXP9RlJ5EaV5cjm+1eu/Zs6fNAR4MUGuc0jsqWN6hQwf7fu3atXa7dZeun87Tf/WrX5kXX3zRlvePf/yjPadX6hkFv+PReb8CwWptr/2kenzsscfs/xCtW+X2B/hF/9d0J6rm1V2n2lYFvfNK26KLEwqM625h8Zfvww8/tHfhqg61rfovpnRAYQ92Vev17t272/9q9957r2nevLl59dVXbWMr/8UEt/xrr702sv3aJv031LKnTp1qp3F0jOnixoMPPmjLpDtrFWDXPlf6mfzO6Q8AQDqkPHiuIKp+6PXE+YMHD9o8gJMnT07Jk8Wbt/q5eXnUTzaNiv+Boe7Bnv4Hg/ofHHrB//7cvuqhoxrnHhjqHjSqlCx6GKnGD3zgRxtkV1505VK/4qJMO41/vnh0UuPPea7WIwrq6sq/TnBci+1KlSrZBw+JTuh0QuPmc51rQR2PUpNoXp3sudsC3UlaNPXr17cncwosa1066VZ/PNoWBcG1fFdOfysQlwpGJ4OuJb1rNePyovvn9T+EMxl04q7WIjrJVFlV365e1ZrD1Xk8al2v/eXqJxVlBQAAQME0evTobOes6pSO45prrrGtvRXkVkA5t3Suqrs3FajUOaaClXqmzrvvvmvTsfifYRSLguMKkisti/6PieZV62MNVxldepePPvoo0lhG/xkU4NW2uIYmzj//+U97d6ke5K9y6aH+P//5z+3zgRSUVctknfO7HN+6y1PBXZVdLcf99IBVleGdd96JbKOex6Syvf766zbvuijoruVu3brVDtfy//SnP9n/mQrQ6zw+HgX9tY4bbrjBLF261K7LLUMB+Zdeesku2091oMCx/sPqjli1kNczmHJLFyXUylvrLVmypOnSpYv9ryfaNl14USMdNXhSWVWHWreC4brQoOFBL7zwgr2YoQsQWq7qRg2xVCdz5szxpjLm888/t8vU8nVMafu1TX/961/tMP0v9beq13GiCwX+aZXnX/WnfZlIgywAAAq9zMzMLH+XkZGRdeDAgQLbrVu3Lqs40r7p0aNH1uETT29Iln3fvHnzrJ07d3pDCobVq1dnde7cOVu5Bg4caDsACNLvTvC3KNgBAFBQ6Fy3Tp06WWeffXZW06ZNs5o1axbprrjiiqxy5cqp6W5Wz549s3bt2uXNdXS+sHPi4Lh///vfWQ899FBWzZo1s1auXGmH+c2YMcOuI5Hz6x9//DGrd+/eWVdddVXWN998Y4fNmzfPzq9X5/nnn8+qUqVK1rJly2y/1qv1T5w40faLfpP1nySsXPqv1rdv36w2bdpk7dixwxt6lMqqbdS2iluWf52OG+f/r/Ppp59m1a5dO+vBBx+09eO3e/furLZt22Zbflh9Dx061K7vgw8+8IYcpTJfd911WTfffHPWDz/8YIdp3mA9xaPyqtyaL1Z3ySWXZL3zzjtZ//3vf705s2w9NGzYMFudO2Hb44Z16NAh67vvvvOGHhFt+3V8zp8/3xtylI4prdv934y17Rrnr2sAAAoCFz9IdkfO80Li8M46Jree+v23+RUUSoXiT+9y+ETatkrQQzMBAACAokC5sNUK9+233450//jHP2xrXaUnUctfpV3JTWoL5RlXi2edP+sBpEFKx6iW4olQ62alXtFdoCrb4f+WttW5UoEoXYuj9C6ybNky++ryZYetR63Zq1Sp4vUdUapUKduqWa24XQoXtVgeO3asbXX+9NNPe1Nmp9QvwZbtYfTQU9XJhRdeaFu5+5188sk2d3ss+k/i7oRVipcnnngiW6dW7bprOvhwVW3/mWee6fUlTs9R0nGgtCvqevToYfOca18oVaRa76u1t+5YcDROd2rfdNNNtsW9tvfNN980Dz/8sLnllluitq5X+Vzr9Wh014HS4Wifa/8F6QGmWrf/mVraxypzmPXr1yeU0hMAgMKO4HkhoZQuuk3OpXRRp3zbLkdfQaITLnUunYmC+zrpTyRHOwAAAFCYKaWHAqV6CGVuU1so4K5ArvKGKygdpHPsn/0s8b9yCgArBePq1attOhYFYTVM6Vocf3oX5f1WPu5zzz3XliFIweuw9SvorBQqCrrqYan676IHXSplZ7TgttI9qmzxqD4krDyqj2BAPRpdQFDqFeVL93f6r6Vgv7bdpbcRbaeWn1NKl6lUKkq7ok7B+ffee8/8z//8j7n77rtt8DxIFzaU9ubKK6+0FwR0kaRly5bmlVdesf+nghcsnPLly9uLJLFo2cpnr/9omj4ROj6i7RvtD5cfHwCAoozgeSGigLROelynFgsKqhdEOvn0l1X9AAAAQHGgwKcCz8FAbKIUYFVQWUHn3Mwf5ALjCoirxbCC58pl7m+Eo4Cqhikv9oYNG2wQXf2JBlrVslstrZ999lmbD10t2BVM/+mnn8z8+fNtK+u8UH1IXp+dddVVV9kLGv7/Kv5OD0nVc5FS4aKLLrKt3LVPlSdeLcv9FFDXQzx1IUD5y5UfXkFq3XH8+OOPZ7vYkVPuAkPwLmEAABAbwXMAAAAASCIFzTdt2mRboQdbjivIHGyxu3nz5mwpOdTat2bNmjbQHdZyXUHwaCk8wiiNioLna9assfMpLYxL0+IosNqwYUOb2kRB3C+//NL2J9qiW9uwcOFCc+utt9rW50pBosC7LgS4NI55oXSVqhNte7D+FAzWw05j0X4444wzzL/+9a9jgtaiFunXX3+9+c1vfhN5SGkq/PKXvzS9e/e2qXOUzkV3Ajhqda4HiirA3rZtW1te1/JbQW8dD7ml7a9Ro4bdr0qpE/Thhx+a+vXr21buAADgKILnAAAAAJAkChSPGTPG3iWqALXSl4juGFXajSVLlpitW7faYaLW2ZMnT/b6jlDAWjnVFeR2ubgdBaHHjx/v9SVGrY6VNkXB8ylTpthAeljea7W4VuvmWbNm2dSLuWmBvWvXrmyt5f/73//aHOPBbcwpBc7Vel3LUfoTtRIXLV95wdW6PRbVgepUObzVOt4fzFeaHNWp9plah+tiQ6qoHMoB/6tf/cquc9q0aZFtEQXxVYd+KuvgwYOzHQe5cc0119iAvJblD6DrYs+4cePssajtBwAARxE8BwAAAIAcUqC1devWpnnz5pHu2muvtQ+KVMvryy67zNx5553m+OOPt9MreK7g7d///nfbwrlfv342dYce3KnUJpreT8OVG3vUqFF2uZq+T58+NpXjjh07vKkS5wLh8+bNi5qORfnEFWSfM2eOfQ3LLx6NcnxfccUVZtKkSaZVq1bm0UcftZ3SpKjs2h61elcL6txQihnVhy5GKPCsB2gqlcmNN95oBg4caNcfj7b7kUcesS28VY+qTy1DrbyV91zL7dy5c65ynOeE6l77Xhcwhg0bFnk4qy4OaFi3bt3ssaMW6HrVvlALdR1bCqTrAk1uKM+99oW23x1T2kc6HvU8LaXbqVu3rjc1AACQtATP1cJBV9XVZWRk5PmKOQAAAADkJ6VlUWtnBaNdp1QcSo0xZMgQ89e//tUGOx0FZBUIffXVV23rbj34/x//+IcNouoBlsqT7qd0J/fee69tta3UHZr+7bffNv3797cBT8lJDmwXGJdo6ViUV1wBZtGryzOeCAW3FZj+85//bLZv327LqUB6s2bN7HbqGUhanh5amluqz+nTp9vAuZaptCdqSa7/mHo4qYLSscqsbVarb6WX0QNdtSxd6NDFiJEjR5qXX37ZVKpUyZs6tZTWRulblELmqaeessFxXWBQC3CldlELe+1ztRBXPSoHuoavW7fOfPfdd95SckbHYJcuXexxpBbmujCjVui6sKO7DXS86bgDAABHlcjMzDx6j9hhs2fPti0FkkWBct1WpyeG60TG3U6nk5Xc0ANiqlev7vUBAAo7/XFt2bKl1xfO/0AzAACKOwWO9f9q6tSpplOnTt7Q4uvwf1rbKl0pT9SCOtGHnAIAgKIjt3dmxZPylucKmCso4loA6DY05cDTg1AAAAAAAMdSOg+lPFm+fLk35Ag1TlLQXK2wi1N+arX0VwOshx9+2Pz444/eUGPzhSuP/N/+9jf7wMtU5isHAADFT9pznuukR7fClSxZ0hsCAAAAAPDTwx2VnqNdu3amZ8+eNv+1clQrV/fEiRPNH/7wB1OrVi1v6qLv9NNPt9uu1DA33HCDTV2jOunatatp06aNzen+61//OjQdDQAAQG6lNXi+dOlS2+pcT3cHAAAAAIRTfvLXX3/dtG/f3j7gUQ+0VI7qBg0a2JzVPXr0KFaBYuXi/tOf/mRzxh933HE2V7fqZP369fahn8oRTnpPAACQbCnPee4ocK6HneiBMXlpdU7OcwAoWsh5DgAAAAAA8qLQ5jwXPSQ0GYFzAAAAAAAAAADSIeXBc7UU3759u9m9e7d9sM348eNtt2bNGm8KAAAAAAAAAAAKlrSlbUkW0rYAQNFC2hYAAAAAAJAXhTptCwAAAAAAAAAAhQnBcwAAAAAAAAAAAgieAwAAAAAAAAAQQPAcAAAAAAAAAIAAgucAAAAAAAAAAAQUyeD5nn07zV0jOpi1367yhiBVvvjiC1O3bl0zadIkbwjyw65du0yXLl3s/sCx3HFaokQJc+edd6bsCcyp8Oijjybt8/X+++/bOtArAAAAAAAAYkt58PzQoUNm9uzZZvz48babPHmy2bJlizcWSIyCnQp6+oN+CogqYKzAcXGR7iC5C7b6O/8+UFDXDU9XUFrrVEA5TLRx559/vlmxYoVZtGiRNyQ5wo5LAAAAAAAAFA0pD56XLFnStGzZ0nTv3t12NWvWNJ9//rk3Frm1dc1OM7LrVLNvd6Y3JH+4oGTXrl29IShqevToYTIzM01WVpbtLr/8cjtcAeOFCxdGxl1xxRVmyJAhdhwKJu07/z4EAAAAAABAdGlP2/L999+bk046yetLHqVquXlIU3Pl/eeYNgMvMV/tXO+NMebDL/9hhs7sZzuNV6dhcvBQpnngpdsiw/Vew9zy3HSiNDBKB6NxMmPRK5H5NK0brvkHTr7bzF32qmn9SP1syxUtxw1Xp3LlxJrFm8xzXaaYdg83NWUrlPGG5o7WPeGd52x5/HXktttfZ/7hoha+Ya2R1TparXGHDRsWGR9MO6FprrvuuqgtiHPDn5rDXya1Dr7//vvNrFmzQlN3uLJEK2s0wfX5l6lxWueYMWNCl6v3brjWnUjredVVxYoVzdSpU02tWrVC533vvfdC1yf+/eUva25o3gkTJpibb77ZlC5d2vYrkK46T2RbxF8e/3b460ad2w5X3926dTP9+/fPNj7WuET415no/tA8ZcqUMaNHjzZNmjSx86oMKosEj49EyyL+utH2OLGOK82jztE+0X7WPnHvNb2/jI62NzefAQAAAAAAgKIsLcFzpWlRuhalbTl48KCpU6eONyY5FLTu9Xxn84fW/c17T24wr/dfas6sWN0be8SsJZNMk4ua2fGD7xhnA9/fHZ5vwMTfm0vP+6Udrq7SyVXNyNmPm/JlK5o2DbuZRZ/O85ZgzMp1H5hzq9Sy4xRE3rR9bWQ+rfvleU97Uxqz/+Be8+7Hc0zGg4vM24M+s8M+3rjMvr6xeJLp1+XpyLz3tBtkhyfin1NWmNceXWD+OO92U7lmRW9o3sz76HVbnnc/mWPOPq2GubFhV/PV9iMXH1Q2V86xveeYt5bNiFwEeOihh2yrY7VMDtq4caMN0Gn86tWrbeqeRIOqsbggpToFkPfs2WOHa9kK1r/zzju2Ze3OnTttcNet84cffjBz5841ixcvtmWS5cuX26DiE088YYYPH27n07iVK1ceE1wM41rdaz51p59+ul2mM2/ePHPCCSfYcf46UDBz/fr1kflUjyNHjvTmik7Tabs6d+5sl6d533rrLXPKKafY8aoLrT+szhUMrV69emSdaiU+c+ZMOy4eBYcVJFadu6C71qELYQrmax1t27Y1119/vSlfvrwtYzwK8n7zzTd2OcHt0F0MrpxaloLyWoer74kTJ5qBAwdGptH0scbFk9v9oWWr/Dr+lQ5G86oMKouOn169eplp06bZ4e54dBd0YnEBcFcebY9ftOOqY8eO9q4et883b95s95E+J7rA8fzzz9ty1K5d24538vIZAAAAAAAAKMrSEjyvWrWquemmm2zalkqVKtngj3KhJ8uaLZ+bqhXOMhdXa+ANOVbDWv8vMl7B8idue8lk2T5jrq7b0ntnbIB923dbbIBYw/VewXn1f7b5I9O60ZFgnILqCsi7Ftl9XrwlMp/TvsmvTamSZWyn9Wm9ogC1ps9Ji/NDB34yL/d83XyxcKP5vxndjmlx7lrKu/L4W7rHo4sEFcqdai84+OtC/K3rbx/W4nBdf2YOJLBcBVF79+5tg3YKsIo/qKpAqQKmClTmhAtSusCh1iN6ryCv1qUgr16XLFmSbZ2ulbQLJCp1hQKMOh5dS24FiQcPHpxtvmgUpPS31lULYV00cBSk1HhRQHXKlCl2uxcsWJCtdbQuCCiQrCBmXkSrcy1XAWi1ynbr1HsFjONxaT5cUFX8qVlU7/psK/Cq7UiE6k1BXlfWIAWYXTnD9mOypWJ/qLxajva7aL+rLv3HRxhXNwqERxPtuNL7Cy64wO4TWbZsmU2Z5S5KRJOXzwAAAAAAAEBRlva0LQrQyI8//mhfCzK1MFdLdAXnv961yQ4745Sz7auoBbtrla1OAXIFyuNRUF3TK1CfaKC7ZOnjzK0j25jzr6hmnm4/8Zhc5yrrhPvm57gssSi9zOuLJ9gW51qmXk8sfbI3tuDxtzhW51oBx9OsWbNIC2jXJZITWq2T/cHlYAvhWPwXAdQpmB8WSE6WE0880QZV/evM6YULlU8t1kUBVqVfGjVqlL2rRPXsgq0ucJ8bCh6r5bWrHy0z2FI6FdK9P1Ll6quvthcDFPhX6/EGDaJfUPTL7WcAAAAAAACgKEt78Ny1ijz++OPtazKo1fSWXZtsgFtB6L9k3J8t53k0pb3g8oIVs+2r5lVLa7UQd4FntTRfvvafNmXLdQ3aR4ar9fizbwyM5DnPDa1HKWYkkdbc0rhLXdP2oavNX5qNtQ8NTaXde3cYU6KEOeVw/YrSzfxw4Dv7Pq9cq21/jua8UMB2xowZCaXF8NN8H3/8ccIpTBwFJ9U6WalQRCkutP5EaB5tt+ogp1zQOietghUELleunE1rk5fW1CqvUo8oQOsC6QqwupbNGRkZtuVzvJbOGq/pNH2QtkuBWxeA190Jq1atsu+datWqRW0ZHmtcNHnZH6oHpesJtihX+RWQd6lP9Kr+eMFst3/ValyUbsef8zye+vXr21el76lSpUpCF49y+xkAAAAAAAAo6lIePPfnO1enHLxKJVCyZElviryrUaW2adPoZptWpHm/C02LS35lGtQ80kI2FgXC/9jxSfP6kom2BbjmVUtztQx31NJ8w9YvbY5zf1oYTVOvekP7cFKX1kSB93gUoPc/oFTza1lqOZ6omo3ONr+f0sXMfHj+MS3Qk0nbq3Q4bhvLlCpr+0XBSeW/VrDP/8DEnAavk0VBwhEjRkTKoc7l545FgVylHFGaCjefgvrxAqkKmioNjEuFcvfdd5tbbrnFGxubcmUr6KygpVtnog9odOt125lIWeW+++6zr9pfbp2J7KtgChW1Vnctkl0+cTdeEm3NrvIoyO3mdduh/ahtcylE1HparaL9XIDYbYu/7qKNc9uhZbsc7u74yMv+EKVYccePexintkNBb7cdelV/vGC29q/S2bjlKbWO8rgnSvPrYsBdd91lWrRo4Q09erFK2+geOOvKmtvPAAAAAAAAQFFXIjMz06X+tvTwuVatWnl9BY+C8a61LwCg8Js+fbq9qBqLLgwAAAAAAACEyUkWgpxIe9oWAAAAAAAAAAAKOoLnAAAAAAAAAAAEkLYFAJCv8pK2Ze3atebBBx/0+uCnegUAJEeXLl3Mv//9b68PyXTrrbdme1YLckYP29czeBDbs88+aypXruz1JUbPXxo0aJDXh2TiPBXIPT3T7emnn/b6iqdo3yGpSttC8BwAkK/yGjyvWbOm1wendevWZtasWV4fACCvFDzXQ7eRfG+++SbB8zxQ8PxnP+OG8ni+/fbbXAXP9ZB9JFeZMmXM/v37vT4AOaXgeZMmTby+4qdKlSo2NhyG4LmH4DkAFC3JCp6fdNJJ9rW4+/777wmeA0CSueD5CSecYP7nf/7HG4q80O+VEDzPG3/wnHOhY7njLK/Bc+o2ObQ/CJ4DeeMPnhe37yZ9hxA8TwDBcwAoWpIVPH/88ceLfQqX0047zezYsYPgOQAkmT94vm/fPm8ocmvGjBmmQ4cO9j3B87zxB8/vuOMO88ILL9j3MKZfv37mscces+/zGjwfPny46dWrl32P3LnpppvMlClTCJ4DeeQPno8dO9bcdttt9n1Rd8MNN5g5c+bkS/A8rfd3zZ8/30yePDnqRgIAAAAAAAAAUBCkLXi+dOlSc/DgwaitBwEAAAAAAAAAKCjSEjxXS/Ovv/7a/OIXv/CGAAAAAAAAAABQcKU8eH7o0CGzfPlyc9FFF5myZct6QwEAAAAAAAAAKLhSHjzXQzYqVaoUeaAbAAAAAAAAAAAFXUqD53v37jUbNmwwq1atMuPHjzevvfaaHaYHh6oDAAAAAAAAAKAgSmnwvFy5cqZjx46me/futmvbtq0d1rRpU9sBAAAAAAAAAFAQpeWBoQAAAAAAAAAAFCZpDZ6r1blan1etWtUbAgAAAAAAAABAwUPLcwAAAAAAAAAAAgieAwAAAAAAAAAQQPAcAAAAAAAAAIAAgucAAAAAAAAAAAQQPAcAAAAAAAAAIKBIBs/37Ntp7hrRwaz9dpU3BPnhiy++MHXr1jWTJk3yhiC/PProo+yHOA4cOGDuvPNOU6JECdvlpb527dplunTpYj8DqaQyat+iYNM+Yj8BAOLR77rORXROAhRmX375pT0fdvz9Oj9u3rx5ys+TC6LivO0ACjedm6xYscK+1/f5ddddZ95//33bXxz+76Y8eL53716TkZFhxo8fH+nmz5/vjQWSIxhEdIFQ92EuDorjNifTzJkzzemnn26ysrJs17VrV29MdNQ5EvHQQw/ZDgAAoKjTeXGvXr28vmP7i7Pzzz/fvP322/YVAAoLxT169+5tPvvsM9t/yimnmLfeestcfvnltr84SEvL8+OOO840bdrUdO/e3XZ6j/TJr5b4OinQlalEgpBAflu/fr2pXr261wcAAAAAAIDirsikbVGA+OYhTc2V959j2gy8xHy1c703xpgPv/yHGTqzn+00Xp2GycFDmeaBl26LDNd7DXPLc9OJgs8KQmuczFj0SmQ+TeuGa/6Bk+82c5e9alo/Uj/bckXLccPVqVypVL5sRdO73aPmnjFds21PPCrXhHees2X1159bhn/71anfUStwl/4i2CpX48aMGWNTumh88PZU15o3ODwvdGucW1+wTCrPrFmz7G0nGqdX/22G/m1JtEzuNhY3n3+ZKsv9999v68CN96cIiVXWaDR/mTJlzOjRo02TJk3sfFqG/5bA7du3R8oU3I7cbKPWOWzYsITqTZ3bDv98WperB1cHwbrz1407Nty44Dpj8ZfHP58b3r9/f9OtW7eEl5tInb/33nuRdfq3Q3JT56LluPlUXkfz67jSsRz22VL9u/nU+fdHcP0qmytvrP2hZWha/7b4j1f/8GDdFFRue/3fUa7s/rr311nwM6tO2+64OhJX3/7Pf06OYwBA0eH/XdFvgc7VHI3T77p+MzTe/f4Gf3Pc74uGh6WD8P8Gid67ef2/zfodUso59/vkfpuC5w/+ZaHo0jmOO/bU+Y+V4Dh1/uNF58VqXV2xYkXz/PPPZ+v3nyf6RTsui5qwz2msbde44GfOPyzse8KNV+eWq/H+c32tI9r3iIb795M7N4627wAUfmHfTW7YypUrbatzxT0Uf9D3yTfffBP1eyHW70dhlpbg+U8//WRTtShly+TJk82WLVu8McmhoHWv5zubP7Tub957coN5vf9Sc2bF7C1IZy2ZZJpc1MyOH3zHOBvo/e7wfAMm/t5cet4v7XB1lU6uakbOftwGnNs07GYWfTrPW4IxK9d9YM6tUsuOUwB50/a1kfm07pfnPe1Nacz+g3vNux/PMRkPLjJvDzpya8PHG5fZ1zcWTzL9ujwdmfeedoPs8FSqUaW2GXfvPPPsGwOzBbnjmffR67as734yx5x9Wg1zY8Ou5qvtRy5MtG/y68g2qM5VJ+4CglIUZGZmmh49etj+oJEjR5pp06bZaWT58uX2NS8U/HQfUBfUFP3gK1j7zjvv2HQcO3fuNBMmTLDDnVGjRtmTDY3XrSe6BUU0TK2RXSqPK664wqb3iMfdxuLmu/nmmyPLlHnz5pkTTjjBjlu9erWZPXu2LU8iZQ2j1v2uvhctWmTnVat//y2B48aNM8OHDz+mznO7jXLPPffYfa35/PUmbrg6baOCuu6kTWXR+I0bN5pt27aZiRMn2pbfGv/EE0/Ycmo+lVVf1u7LVmX2p1bR+lTX8bgTQjef9kffvn3t+lw5Bw4caMuR6HLj1fmePXtseTWNfx9Lbutc8y1cuNAuU/OpvH4//PCDmTt3rlm8eHG2/awfNdWBjifNp/Joe1Wv+tH7/vvvzebNm+30KuPnn39uGjRoEHd/iD53V199tR2vetDxqvk0jdJ2ubIGj8eCTvvDfQ7bt29vatWqZYerX/WoY1fTqL7uvvtuM2LECDvO1YPqJdqfDH03uc+/6qdatWr2OxEAUHzoN2Lw4MH2N1m/Bzof0XmVn8brnEXjdd6hefR75H5z9HvkfuPPOussc84559h0mY5+ozRev9P6bdafWdG86rScTp06RX7X/ecuOhfS8nW+4Mro1qcORZeOFQVKxJ3H9enTx57v6JgaMmRItvNxHReicxn9H9B5kAIuGq5jzt8fvMU/keOyqHLbriCUv55zuu3B7wnxn5+r3t15q+jzq3Xov7jGa90qg/seadiwoVmwYIGdVvT5F3cuDKB4KVWqlI1RKe6h+IMuimpYNMHfCH2vaX595xVmKQ+elytXznTs2DGSsqVmzZr2B1RBlWRZs+VzU7XCWebiag28IcdqWOv/RcYrWP7EbS+ZLNtnzNV1W3rvjA2wb/tui20lruF6r4Cw+j/b/JFp3ejID5KC6grIu1bXfV68JTKfo+ByqZJlbKf1ab2iILSmz2mL8327M82TLV42PSsPst3LPV83hw78FHeco6D/C73esEFuf0v4WHQBoUK5U+3FCH89iZbjtl+t/Vd9tcLs2rvDGxubPkAKpJUuXdp+sPSD7miYPpDq9D5ROrl3H1CdBLjAvX7wFaxSawcF1vW6ZMmSyIme6ITDBUv150UnHvpwK1DpWiOr03sFeeNxJ0PR5qtdu7YNWorqYcqUKXb9iZQ1t8LqPC/bKKpzdxKsYLB/PgV63TJ1svXxxx/b/SIuGFm+fHn7/eAogKsLCxqn+XQRRCeEbvtVHzNmzIi0bkmEtlHfN/71KDCsgLErTypo2/THQ/Wtcou2I7d17ubTsRrrc+HGq9NnSPtH+9p/jLs/2CqPhrVs2dIsW3bk4p6OwQsuuMAeK/H2h+hzVr9+ffte63KfW22z9nmjRo0K5Z8ff33pz4f+9LnPrOpBAW/RNAow+P8Mqr40fTT+ZamudPFEf1q0jwEARZ++73Wx2Z2biX5HdF7lp98L/aY4Cmj5z730G6TzVgXDdE6j3y69d+dI/qCXftN17tOzZ087TLQcnZP5A+76TXLnGfq9VyMHJ+w3D0WPjpUNGzZEzmNF/41c4xIdc+ocDcvtMZHocVkUhdVzu3btbPDanZcnIvg9If7zc7d/3H8NfY/4v3u0bpVBMRqVSd8B/u8RTa/5tRwAiEXnN/pf66ffj5zG9gqitKdtUdBOOdALAwWb1RJdwfmvd22yw8445Wz7KmrB7lpeq1OAXIHyeFyLbQXqFXhONJBdtkIZc/+cW83Irf1sd+vINqZk6SN1GWuco4sAv3mmdeTiQSJljUbLUit2Vwdhrf0LEn9gXV2irWBPPPFE+8fDP6//ZDEad2Vff2Q0T7CFcCy5LWtu5XYbY1GwVHeauOXqVcHkRDRr1ixSb65zJ+SqB9WHAvP6Ei6stwClos7zQhcT1KJcP3Y6QVaw2Im1P2Jxf7DVCl5XmhV8L0wt1VxwPFGqO3fBTBcOdHtyNFq2AvAAgOJJv6u6sB38rQk+e8X/e+H+kAanUdBM51gKdLsAms4xxB/00vipU6fa3yh38V6dWqj6+cuk4JsCeVqupnV38qFo07Hizmdi8TeUCR5HiUr0uCyKwupZwSUFrxNtyCRh55WKuYQFqtz3iL8Rjzp9xt2FMv0v2Lp1q/0e8d+9AgDx6HtHF/L1Ha7vlqKSskXSHjxXOgC1RleXLGoZvWXXJhvgVhD6Lxn3Z8t5Hk1pL3i8YMVs+6p5ldJEwWUXWFZL8+Vr/2lTtlzXoH1kuFqPK3js0pTkhtajoLMcSCB4nhfKs37LU81sehkF7/PKtjDPyrJ1L6rDROo8ES4IpU7v80onJGqtnNPAnT74Ok5zc4uJTnjcSYtOOtS6KBG5LatoXcFW/PHkZRtjCZ4MquWIbgWOR9OrtXK8FCYuMKtWKVpXLG4b/a1X9F6tq/PagiKdde7WpT/ComNEJ76J0Em1P/2PbslWmd2fbF2UqFKlih0urqVKovsjFpVbV5p1ASkn9VRYqE7Vilx/WrR/dHFBx2SslucAACSLfnN2795t3+u8RsFynSvo90n/u9ydd/oN1m+TpvdfEFcX7QK++w3XNC4lmc7vCKIXb9r/Og50bumOp+BdE4nKzXFZ1OUkcJ5T7sKdS1Xp71yDLXX6j6XvEXchzv1nAIB4dB6i7xR937gL8EUhiJ7y4LnSJShQpVao6qRp06b2NVmUz7tNo5vN7cNamOb9LjQtLvmVaVDzCm9sdAqE/7Hjk+b1JRNtC3DNq5bm/uCyWppv2PqlTVHiTwujaepVb2jTlbjUJYnkEleA3v+AUs2vZamVe6oowD9s5kNm6G8nRVLH5JXqvN65jWydazuU0sbVuQt+K5ikFCTuYYr51epUJwDKnefKoS7RwPx9991nX7Utbt5EtkN/VBQE1/TXXHONvQUvEXkpq2i9Squh+RL9gsrtNsai4KsCtgq+anlly5bN1pIpGv3pU35ttw3q/Cla/C1c1EkiraC1jWpl4ebTe7fdeZXOOtctrZpO0+sPi1KqJEJ1pCvAbn/cddddtp79Fw8uvfRSe9ypZYn+LEu8/RGLK6frlHIm0c9BYeL+VOhPn/uTp/dqsQMAQBj9/uu8KHhROVbQzF1ED06j3xz9zroGC/od12+w/neddNJJNlWbaH36bdL0ueH+DCuIruUnci6AwknHkvZ12LGi/a79r+PApXHR/5TgbfqJyutxWZiF1bOry+AdJk5e6lrcd0+8AL2+R7QePbNKn33/fwYAxYO+m/yp23LKXYB3QfScpKMqkA5vSJa/y8jIyDr8pVxgu3Xr1h3+jQEAFBX63Qn+FgW7aNasWaPHV9ju8ccf94bm3uGThKzmzZtnHf5T6A3Jsu81TONE5enRo0fWxIkT7bg6depkrV692o5z86s8bhkDBw60nWgezevfprBhuXXqqafadbdu3dobAgBIhs6dO9vv1xNOOMEbkjfB3w/1a/nu9yDst8FN435f3G+O+40R9xul6bQMxw33L9PNr+mi/f75yyj+37S8ePXVV20Z1b355pveUOTGf//730hd3nHHHd7Q3HPHin8/6xho1qxZ1pIlSyLHjKPptG43vZvWHTex+uMdl3nVt2/fSN18++233tDErVixIjL/8OHDvaG5F2/btc3+z1yw330HuLrWeP/8onH+fSf+YcHvEdFyVOeqe3H7IDhdXnXp0sUus0yZMt4QALnhPsfqxo4d6w3NPfeZd98T7vvJ//3j/x4JnjO4cW4+N534v/fyqkWLFnabq1Sp4g05lsqQii7taVsAACgq1BpHD11y+WDViujee++1D2pyKXYAAAjS74fuNnS/H0qFMXToUG9sOM1z+M+nvYPM/eZomD+9hVp6KWfy4T+8Nnexo+FKGSfuzjfNrzvT9ByZMMHfOHXJvHsPBZM7VrSv3X7v1KmTeeaZZ8xll112zF2JMnHixMgdCe7B9DpudNdosN8vN8dlUeFaZeqOErftqtdp06bZu5FFdaAUKu4zqHPLgblMkePoc71o0aJsdzrrjlbtG9fCXK+arnnIw0gBFD3ujnOXPaFRo0bm+uuvN5UqVfKmOHJHitK36U50ly4uSN9rjz32WLa70PUdovnc91phVUIRdO+9NXv2bNOqVSuvr+DZsmVL1NuYAACFz/Tp003Lli29vnD6IQ6zdu1aU7NmTfv+8ccfNw8++KB9X1yddtppZseOHaZ169b2VlsAQHJ06dLFPtjwhBNOMPv27fOGIrf0B71Dhw72/ZtvvmlatGhh3yPnsrKyzM9+dqRN3B133GFeeOEF+x7G9OvXzwZy5NtvvzWVK1e27xOlB+orLaMosNSrVy/7PreU3lHL0IWIgh5Ics82SGbu+ZtuuslMmTLFXizYv3+/NxRATik4rQtgMnbsWHPbbbfZ90XdDTfcYObMmWOf16bYcJgDCaY8zilangMAAAAAAKTQzp3Zn1FQUOkOAv8DhwGguCN4DgAAAAAAkAJqCXnnnXfalqJKSVOQH8Cp9C0K7uuu0MKeZgEAkoXgOQAAAAAAQAq4/OZKsVPQc7mrfIWhnACQTgTPkXS6zUt5IZXTLZl0FdzlXkuVVJUdAAAAAAAAQOFSZILn7lYoJc5HelDnAAAAAAAAAIoqWp4DAAAAAAAAABBQJILnSudRpkwZM3r0aPsQDj3Bum7dupHUG66FtIar03sNi0cpPK677rrIfHqvYY6Wr/W48SqHE2ud0ebT67Bhw+x6NP2YMWOyjVfKklmzZkXK5C9PcJn+9fmX65/PbZ+/5bje+5cbjZYZq87lvffei5THbYOjbXHj/GWNZ+/evZF6DZYzWAduu7Ts+++/39adG+9fp6sHDdfDUVatWmWHAwAAAAAAACi+ikTwXA+zyMzMND169DCLFi2yD7hYsWKFfTq0AqS9e/c2V1xxhR2u7vTTTzdDhgzx5o5OT8F+6623IvPpydjqFwVqO3XqZEaMGBEZ7x6q4dap9bhxekCIHhSi+Xr16mWmTZtmh+/cudNMmDAhEugdN26ceeihh8zGjRvNtm3bzMSJE8369evtOBkwYIAZPny4nffyyy+PlEfbqm1269O6ly9fbsfJPffcY5frn0/bp21asGCBN5Wx7xN5AnisOpc9e/bY9Wua1atXm9mzZ0cC3QqkV69ePVJW7ZuZM2facfEMHjzYls+/HaJl6wLBO++8Y8e5enXr/OGHH8zcuXPN4sWLbZlE5dN4bYurG81Xu3ZtOx4AAAAAAABA8VXk07a4QKlaFjtXX321+eabb+K2dtZ418pZXbdu3SKB7GXLlpn27dvbAG7Q5s2bzffff2969uzpDTlKwVm11HZBZgWptQwFy0XLrFWrlilfvrzp2LGjHebXp0+fyLzaDlcef+tpdf37948sUwYOHBgpqwLXbj7No7rQ/Or03l9XuaXy6wKCLhioNbdo21WnCxcutHUZVq/xRNsOBejVCl7r0jL1umTJErtOR0F3lcc97VzL0XzVqlUz9evX96YCAAAAAAAAAHKex+RaQysAr1bJagVeUI0cOdIGg1VOdQoyJ0LBe7VSVwtuBZL1Pl6r87w68cQT7bpcWdWp5XdeaZv9y/S3hAcAAAAAAACAnCgywXO1Jlbg19/aWpSXW1x6D7V8VjoPpQrRPLGoVbOWqenUKlvzOQ0aNLDpSvw5vp2zzjrLnHTSSZF1+qlFtH8+vapfy8sJtx1qfa73ajGultiiZc6YMcO+T4RauKs1uJYX1to9mmh1HovmKVeunE2xonIni+pV2+zP354IzbdhwwZ7t4DK07dvX3KeAwAAAAAAAChaLc8V+FVObKXtcA+vVLD2scces4FhDVcwXQFfl588Fi1PAVnNd80115h27dp5Y47kGFdqFKVY0Xh17qGYwXWqcw+oDM6nV/Un2kLapTvRdugCgFqba31KSeLG3X333eaWW27x5ohPwX7H/z4RYXUez3333WdftQ2aT11Og95Bqj/ln3cPL1WXyININV/37t3tflB5lDanWbNm3lgAAAAAAAAAxVWJzMzMLO+9pQc7tmrVyusreLZs2RJpYV3cPProo3bbEwn854QCzO6hqsleNgDEM336dNOyZUuvL5wuEoZZu3atqVmzpn3/+OOPmwcffNC+L65OO+00s2PHDtO6dWsza9YsbygAIK+6dOlipk6dak444QSzb98+byhySw2UOnToYN+/+eabpkWLFvY9ck7pKn/2syNt4u644w7zwgsv2Pcwpl+/frZRm3z77bemcuXK9n2iVq5caRuIyfDhw02vXr3se+TOTTfdZKZMmWIbre3fv98bCiCn1PhUDUdl7Nix5rbbbrPvi7obbrjBzJkzx1SpUsXGhsMkM8OFHznPYZYvX25TryTjQaEAAAAAAAAAUBTQ8rwQSXbLc6VY6dSpk30/bdq0hFPHAEAyJavluVJWFXeTJ0+m5TkApIC/5bla9yLv1JJXaHmeN8GW5zpGcZQ7zvLa8pzzzLzbvn07Lc+BJPC3PC9O301r1qzJt5bnBM8BAPkqWcFzHEXwHACSywXPkXwEz/PGHzxHdHkNniN5CJ4DeeMPnhdHpG0BAAAAAAAAAKAAoOU5ACBf5aXleUF6aJtawP/+978vMLfOlS1b1nsHAMirwvSQ0Isvvti2lC9MD9HmNyv31PK8ILXi3bBhgz0G58+fby677DJvaMGQ0+OsMH3ur7rqKnPppZeaJ5980htSsPGZB3Ivv7+bfvGLX5gbb7zR9O/f3xuSftG+Q0jb4iF4DgBFS16C5wVJ1apVTe/evU2fPn28IQAApF+NGjXMzTffbAYMGOANAdJn3bp19hhUWoHGjRt7Q5FqCpw3atQokuMdAFKldu3apn379mbQoEHekIKj0KdtWbp0qRk/frztdBUaAAAAAAAAAICCKi3BcwXLt23bZjp37my6d+9umjZt6o0BAAAAAAAAAKDgSXnwfO/evebgwYPmyiuvNCVLlvSGAgAAAAAAAABQcKU8eL5161b7qpxnLm2LUrgAAAAAAAAAAFBQpSVty+7du825555rU7a0bdvWfP311/bBnwAAAAAAAAAAFERpCZ5XqFDBnH322fb98ccfb4477jizf/9+2w8AAAAAAAAAQEGT8uB55cqVzU8//WR27txp+/Wqfg0HAAAAAAAAAKAgSnnwvFy5cuaiiy4y8+fPt/nO3333XXPZZZfZ4QAAAAAAAAAAFERpSdtSs2ZNm+9c3U033WSqVq3qjQEAAAAAAAAAoOBJS/AcAICi7pVXXrEPxQYAID+NHj3adO7c2esD0kvpWd944w1Tq1YtbwjS4amnnjK/+c1vvD4ASJ2RI0eabt26eX3FQ4nMzMws7701e/Zs06pVK6+v4NmyZYupXr261wcAKOymT59uWrZs6fWFK126tPcOAAAAAAAguwMHDnjvkouW5wAAAAAAAAAABBA8BwAAAAAAAAAggOA5AAAAAAAAAAABBM8PO3go0zzw0m2203scoVxBd955pylRooSpW7eu+eKLL7wxyA+q/y5duphdu3Z5Q+D3/vvv22NV3aOPPuoNLRxU3kmTJnl98Wn66667jmOhgPnnP/9pvvrqK68PAID88cEHH5iNGzd6fUB66T/ku+++a3744QdvCNLhX//6l1m7dq3XBwCp8+GHH5oNGzZ4fcVDyoPnS5cuNePHj8/WTZ482T74E+nz4Zf/iHpxYM++neauER3M2m9XeUOO0AP6nn/+ebNz505Tu3Ztb2jqKBCo4LA/SK+AqAL4qUr6XxCF1UMqKWjrgs5hF0r849OxL9xFG+37MCpPWHD88ssvN1lZWWbixInekORI9/5A4dWhQwczdepUrw8AgPzRtWtXM27cOK8PSC/9z/9//+//mU8//dQbgnT43e9+Z5599lmvDwBS55ZbbjFjx471+oqHlAfPL7nkEtO9e/dI17RpUxuULVeunDdF/itVsox54raXbKf3qTZj0Stm6Mx+Xh+Q/wYOHGgDz+pWrFhhzj//fDtcAeyFCxeazMxMO+6KK64wQ4YMseOQfx566CHz1ltvmVNOOcUbAgAAAAAAgGRLe9qWzz//3JxxxhlJDZ4rGP38nL+Ym4c0ta2rJ7zznLny/nPscFGL6taP1LfD1PlbYKtFthseDGj7l6vxelUr7bxq3+TX9jU3aWL85VWnfom2jSqvyt3nxVvMktV/N837XWjHu23Va5uBl5hPN/3L3D6shR2X6HaqRa5SR7hWycG0Ey6NRrQWxLnhbwXtT1uh1sr333+/mTVrlm05rfH+VtJqNeyG56RMwVbZ/m3UMtQCWl3YcqOVNRYtq2LFirb1aq1atULn1d0bYeuLtz9ySnU3YcIEc/PNN9sLXupXIF3rTGRbXAtyVx7//ohWr3otU6aMGT16tGnSpIkd51rCu33YrVs3079//2Pmjce/zmTtj+BxlWhZxH/caHucWMeVf33++hQ3j+PqP2xe/zIBAAAAAAAQLq3Bc93CtXfvXhuESrY5SzPMH1r3N1t2bzY7vt9qerUeYDZtP5Lzq0aV2uaNAcvNe09usF2lk6uajzcus+MuPe+XdpimDzPl3dF2uZqmXvWGZsGK2d6YvLmn3SC77t880zrhgLwC5YOm/J8Z23tOZFu0DIm2jeXLVjQT7ptvBt8xzjSs9f/M24M+s+O1ftHr6/2XmovO/kVkuZpe88WiwNwTTzxhhg8fblskq2XyypUrbYAuL/bs2RMJUqpTANVRsG/9+vWRFtJqfTty5EhvrLF59ebOnWsWL15syyPLly+3gc5hw4aZd955x86nNDQKCicSPNVtr259mk/BY/98CnpeffXVdvyiRYvsclU38coajabTejp37mxWr15t5/W3MF61apXZt2/fMevL6/7wB6NdAFbL+P77723wWNvctm1bc/3115vy5cvbMsai8vTu3ducfvrpkTpQCiAF4SVavWq41tujRw+7fRrvWsKr03ulZfG3lNc88aRif6hue/XqZaZNm2aHazrtj0SC0q6OXXm0PX7RjitXBxoW1LFjR3tx0h2fmzdvtvtPnycNy+1nAAAAAAAAoLhKa/A8Fa3Onav+t4WpWfUCc2Lpk03rRtmDaa71tWuVPWvJJPPV9vXe2NhubNg1EqA++7QakYB8PP+cssL0rDwo0q1ZvMkbc5RaoCswr5bfrgV5LIs+nWduuaaXDZQH5WUbc0OBuXnz5kUC3WotPHjw4GxBVZeDWq+JUmDWBSld4NBZsGBBtiCvAuvffPONDSo6rpW0y9eudWt5asmsILDm0+uSJUuylTUaBULd+sLmU5C3fv369r3W5QLEiZQ1N5R7vmfPnva9yqPgqILNieyPaIKBbG2zvwW16u+mm26ygXn/xYxYXODWlTUoXr0mWyr2h8qr5bgUNwqo6xiI94AuBaz1XahgdzTRjqtYVI4LLrjA7i9ZtmyZadmypS1XXj4DAAAAAAAAxVXagudr1qwxu3fvTkmr83henve0bTXuWmUrIJ5qjbvUNSO39ot0NRud7Y05Smlhnn1joG357QL0uZUf29isWTMbuHWBV3U5CZTnhmuN7LpEgorib6mszp/XOxoFOdVC2K1TgcacPDg1t2XNrWTsDxcAFgXgTzrpJDNq1Cj7kF/Vlwu2KviaW3mt19xK9/7ID2qtrgsFuiigOw8aNGjgjcndZwAAAAAAAKA4S0vw/NChQzbFwTnnnJP2B4Uq7/e277bYVuOi3ODvfjLHvs9PyjWu1uYv9HojbooUp8lFzczrSyYek+YlkW2sUO5Us+/AD+ZASI710iXLmLKlTzS79+7whsSn4OnHH39sZs6c6Q05lmtdnEgai0RUr17dBl1zmmpCZZ0xY0aOy6GgroKMLlCsdB1Km5KI3JZVXNA6J62CE9kfidDnVEFmBV0VWNYDQhVMd2ljMjIybOtm1x/NWWedZbdBdRYUr161XqV7idaCu1q1ajluNZ6K/aHyq65cahx/3cXilqeW4aJW/moVnwyutbrSFVWpUiUSHM/tZwAAAAAAAKA4S0vwfNOmTbZFbH60Oi9VsoxNj/LMG4/YdCaPTPqDaXHJ0XQJav2t4RqvVCd6H3xwaLK5B5k+cdtLtnyJUuv0Ng272TQvLj2LAvDxtlGU6uXcKrUi8/q30c2vh4pqnHtgqAKNejiiAm/ugYnu4Y0KniqNh1KDuFQYiT6EMbeUXkSBXJXHrTORBzQqgDhixAibYsPNF3zYYhjNp3lcKhS15FXr7kTktqyi4LHSz7jyJlKvedkfKpebp1OnTuaZZ56JBF1dPnE3XpQHPB5tw2OPPWbzart5XZ0nUq9KaeK2xR1zjgsQKwit8a5e3Xb4HyiqgLmkYn9oO7Qetx16Vb+ru2i0POWDd9unXOzK454Id0FKZVEaFtWB/1jWsnWh4K677jItWrSww0Rlys1nAAAAAAAAoDgrkZmZmeW9t2bPnm1atWrl9RU8euiogkMAgKJh+vTpNj97LLowUNBVrVrVXhjp06ePNwQAgPSrUaOGvfA/YMAAbwiQPuvWrbPHoBp9NG7c2BuKVLv00ktNo0aNbIMqAEglpd1t3769GTRokDek4EhVA8G0PjAUAAAAAAAAAIDCgOA5AAAAAAAAAAABBM8BAAAAAAAAAAggeA4AQBK89NJLpk2bNl4fAAD5Y9SoUfYh8EB+qFy5snnttdfsw/SRPk8++aS5/fbbvT4ASJ1nn33WdO3a1esrHnhgKAAgXxWVB4YCAAAAAID8wQNDAQAAAAAAAABIk7QEz5cuXWrGjx8f6dQPAAAAAAAAAEBBlfLgudKs7Nq1y3Tu3Nl0797dtG3b1mzbts3s3bvXmwIAAAAAAAAAgIIl5cHzcuXKmR9++MGsXLnS9q9evdq+Hn/88fYVAICi4IMPPjBff/211wcAQP7QXb6bNm3y+oD0OnjwoFm4cKGNASB9PvroI7Nu3TqvDwBSZ9myZWbjxo1eX/GQluB5mzZtbGtzpWz5/vvv7YPhSpYs6U0BAEDhpzurpkyZ4vWhMJs0aZK58847Qx848/7775vrrrvO3lVX1KxYsSKyzbHqILdUdyVKlMjWBevy0UcfjTou2bTsL7/80uvL3v/FF1+Y5s2b29fc8tdnMuRln2jbVJ/aByj6unTpYl555RWvD0ivb775xvzyl780n376qTcE6dCjRw/zzDPPeH0AkDo333yzefHFF72+4iHlwXOlZ3n99ddNpUqVbOoWXYmePXu2OXTokDcFAAAA8pMCs88//7zXlxpqoaI/95mZmSYrK8t2b731ljnllFPseJVBwd2dO3facZdffrnp27dvUgPQjoLJXbt2NTt27Ajtz6t01GdOqI5V16pTAAAAAIlLefB869atpkyZMqZOnTq2tfmVV15pfvrpJ/vHCAAAAMXD+vXrzemnn25Kly7tDTlKwesJEyaYhx56KBJM79mzpw24L1++3PYDAAAAQLqlPHguamH0448/2vdqia7gOQAAQGGnVtFKpRGWakSvSp8wZsyYbONizRNGqUPq1q0bmV6d0ps4ej9s2DC7HI1zqTn8KVA0f7QUJGol3a1bNzN69GjTqFGjbNMNGDAgsoxgypBgufxlCtJ8upW/evXq3pDsXGvzihUrekOOtJZWS+lYORVVdrd+dep3/NuvztWB6lqtzN9++23TpEkT8+CDD2brj7Ydea3PYNoaf1nD+LdN+3b79u3emCN1r2NL+13jdXfntddee0yZVGZ12mYtw5+2JaflAQAAAIqjlAfPa9asac455xzz2muv2Zzn8+fPN/Xq1TNVq1b1pgAAACh8FJBUrvsrrrgikoZEOQAViHXB8D179tiW02pIoLQZEm8ePw27++67zYgRIyLTL1q0yPTv3z9bIHTcuHFm+PDhdnz9+vVtoFvcPJq/U6dOoQFfrXvixIk2pcrixYvN+eefb4cr+Ks7BzW/yi9Dhgyxr1q3ljdt2rTIeAXHowWeNV5BcAWVXbDWf9FAwXMN8wfPHbVYD6Ng7+DBg+3D6FUGvapfZdM4lUfrdeVr2LChDTbrjkiNV05z1eWf//znbP1q/e7nLnaIlqUup/Wp5d91113HlFXDw2gb/NumMt1zzz3e2CNWrVpl9u3bZ8e//PLL5txzzzUZGRne2CPHjpZz9dVXe0OO0nq1r9xFC72q5X+08gAAAADFVVpanl9yySWme/fukU4BdQAAgIJKgWMFWV2g13VqmewosFmtWjXTrl07b4ix7zXMBcpFgXKXqiTReZywXNW1atWygV4/BYbPOuss+37z5s32Ae1Ke+Jo/vbt22cLrsajdSjALSq/tkMBaQWTFyxYYPr06RMJtGt87969bfA5LKCs4KxS+SmorGCtulgXDeJRGRYuXJitDHrVQzq1rVquco67enflz4281me0sqpfwzXeT/0KZPun1/oGDhxo3/u5wLi2T/WpYLmrTx1rouPFz5XHnyJHr+rXenOzPwAAAICiKi3BcwAAgMIk+GBL1yk47KgldTDIrvca5qfAuJPoPEEKeKr1s6ZX62ylGPHz5xJXoHrq1Kl2OrcOdWqtnhMqt8oWpLIoiO5vRa5OQdpt27Z5U2XnAtsKajsuMB920SAe15LdX7dhFEx25VN5cyOv9RmtrA0aNLBBeY33izZ9MOWNHsbvb6nvguQuaK4LHAq6uwC545avC0H+7fFfGAIAAABwBMFzAACAXFA6kWhBdn+Q2C+n86gVsILMCmIrQK7pFMwNtjz3U2BU4zVdcB3BlCS5oeC51uFvRe46Bchda+l4tE0uQKwgsOZXmYOi5UmPRelHFBD2p0pReXMjVfWp5SmtT7K4HPEKmuu4+fzzz03Hjh29sUdpvboLQBeCgtujCxnBYDsAAABQnBE8BwAAyAUFdRVYDbYcjiWn87hWxAp4ukCtC35Go4C0xmu6VFALd60jWi7yMGoB7s9xLq4FtJblWnX7y6xpNV+wBba4wLvmD3JpSRQs9wfzc1Jev7zWZ7Syum0Ptu6PNn0i5VcaF9WZnjN00kknRVL5+KmuK1euHFp3AAAAALIjeA4AAJALLu3IyJEj7aso33fdunVtADNMbubxB24VUNYDRFeuXGn7w+iBoe7hmAoki2vBHu2BkC5Ym0hQ3+XXDj60VMsOBsgdl1LEn6JFdaD1qrxq7axl6iGWbn7/+CCXw9yfo9ultlGKFfEHm1U2f5qVYIA6VjA+r/XpyqoHgLp88HpVvz8fvuPq1z+96jmRNDEqq9ath4uGLVtcXfuXL6p71Z/bRgAAAAAEzwEAAHJFQUgFTxXYdHmjFSQeMWKETZ8RJqfzaJgeHKlpNK1aDd9777029YvSc4RRwFSBXlFQ2M2ngGm0dDIuuK3pogXx/VQupf3w581WIFvbFpb2w223pnHTK2+6yukCvCqblutaoascjz32WGgAWDS9tslNr21VwPjWW2+18/nrWC3R582bZ5YsWWIfAKplalrlQVfAWPz9Bw8etMMkGfWp6bSP3X7Uq/ZrtPlVD/7pFdgeOnSoNzY6t1116tSxOdWj0Xr9x5W64P5AwfDdd9957wAAAJAfSmRmZmZ5763Zs2ebVq1aeX0Fz5YtW3KV+zLZ1n67ytwzpqv5fv8e07DW/zOPdHvOlCp57EO1ijq1WOrUqVPMP4BIPbWA+/3vf28efvjhhHPNFnUKNOi7IlXHZUGocwWi1LIyGTmM8/OzPH36dNOyZUuvL1xhCOZUrVrV9O7d29YhAADJcMkll5jrr7/e3k1w8skne0Njq1Gjhr24M2DAAG8IkD7r1q2zx6AuHDZu3NgbilS79NJLTaNGjczw4cO9IQCQGrVr1zbt27c3gwYN8oYUHKm6gzItLc+XLl1qcy+qy8jIMHv37vXGFAwzFr1ihs7s5/Vl9+GX/zAPvHSbOXgo+23MNarUNm8MWG4G3zHOG4JUcrdi+1vDKdjXpUuXyO3axYG2Vdvsv806lfyt9lzn3wcK3rrh3OqN4u6FF14wN954o9cHAEByqEHAGWecYVP3JNISXXcthD0sFkgHPVPh1VdfpUFPmv3lL38xt912m9cHAKmji3SKSxUnKQ+er1mzxmzYsMG0bdvWdO/e3dSrV8+899575tChQ94USAa1hL9rRAezZ19qHg4WjU6K9DAuWp0XXUoNoJytWVlZtnNpBRRE123wbpxuEx8yZIgdh8KHz3Le3XDDDea8887z+gAASJ79+/cnHERv3ry5bRUG5IcTTjjBtkgMS+GF1NEDo5WyCwBSrVmzZubCCy/0+oqHlAfPdWJ3zjnnmHLlytl+XYmWH3/80b4mk1qPX3n/Oba7eUjTSCBZgeXWj9SPjHMtyd3wZ954xMxaMikyXi3RNa+W0efFW8yS1X83zftdaMdFa6EeFFynWrCnklrC33JtL3PLU83suhOl7ZnwznO2rHrv6tCV11+nwe3QCXxYa2S1jlYrZOXNdOPVQtlP0+hBW1pGsqg1th64FiyTWkPff//9ZtasWZHx/lbSrizRyhpNcH3+ZWqc1jlmzJjQ5fpbbEd7uFqQ6kq5U/UgNJejNDivLkyFrU/8+8tf1tzQvMpbq1uClU5D/Qqkq84T3RbtD1fv/u3w1406/3ZoPtVp2H4U/zYGH6zmH+fWp07LcMeqK1OwXqM56aSTzOrVqyPL1TqcWNso/vLE2o7gOH/9KDevn+rfjVMXPAai8a8vp59lAACQPjkJogMAACDvUh48V26+bdu2RVqaK9D0ww8/JD11i4K8277bYt4e9Jl578kNZsJ98035shXtOJdiRcPVVTq5qvl447LI8F6tB5gbG3aNjG/f5Nd2Xi1DaVmU09wt95528XP6KPD+wtzBZty98+w8r/dfGgnIp9Kl5/3SDP3tJJuLPSfB+nkfvW76dXnavPvJHHP2aTVsXXy1fb0dp+119TK29xzz1rIZkRQ2yrOsVsdqmRy0ceNGG0DWeO1z5dJPJBgZj//BZAog79mzxw7XshXge+edd2wr6J07d9rgrlunjrm5c+eaxYsX2zLJ8uXLbVDyiSeesLedaD6NW7lyZUJpUVxLXdci+/TTT7fLdPRgMrW80Dh/HSg4qTzVbj7V48iRI725otN02q7OnTvb5Wnet956K9KqQ3Wh9YfVuQKeyv/t1qlW4jNnzrTj4hk9enTkAWkukKt1fP/99zaYr3XozhLl4yxfvrwtYyJGjRply6XyqDW7tkXU8tmVU8tSUN5th6iupk2blm0/iv5Iipt34MCBtl+C4xT079u3r30gnI7Vffv2mYkTJ9rcoKrnRLdD8+q4Ulk0/eeff57t2Im2jbH2R7xx/tb+KrOj/aJgvTs21CXaijw/PssAACD3CKIDAACkR8qD5zVr1jSlSpWyrWWV81wBmBNPPDHSEj0ZFJRe9+1q85vr+4Q+tNO1Inetp9XK3AWHU2HNls9ta/U2Ay+x69Prqq9WmF17d3hTRLdm8SbTs/KgSPfPKSu8Mcbs251pnmzxcmTcyz1fN4cO/OSNPUIXBBS0f/aNgfaCQiLaNOxmKpQ71ZxZsbq5um72h/Yp6O/q7fZhLQ5v22fmQCD/exgFH/XgPLVKVoBV/MFIBXwVSFTQLicWLVoUCQwqkKf1iN4ryKt1Kcir1yVLlmRbp2slre7555+3wczNmzfbILdrya0g8eDBgxMKnCqA6FoVq9MfFwUaHd0uq/GiQPuUKVPsdi9YsMBO6+bTBYFvvvkmW+vi3IhW51quAq5qpezWqfcK4MejOnL1rc+u+FOzqN5vuukme/FB25ET2h8u8K/jwAV6/a2nw/ajHsao+tR26oKF6lz7QoHrsPye2n5drPOPa9CggQ3+a5tUb26cbjHVsZAof51rWy644IJjjrngNsbaH4mMc8dxkIbpe1XlV5A9WeJ9lnGU9hEdHR0dHV0yu//+97/er0w4F0TXOZHONVzDEgAAACRHWh4Y2rRpU5vvXJ2C6f/zP/9jjj/+eG9s6r0872lTr3rDSAtqtaxONX9LdnVq4a7Adjw1G51tRm7tF+kad6nrjTGmbIUy5v45t0bG3TqyjSlZ+jhv7BFK2aLULX9o3T+hVvKxaFmvL55gW5xrG/R6YunEnvKfH9TS2AV61alVuIKs8Shfk4Ko/nldXu9Y1ALaH1z2t3SOx38RQJ2C+WEB0WTRBSt/i2R1Ob1wofKpFbToIoNSlqhl9eTJk209u4CqC7DmhoLg+gPo6kfLLIo5O2Ptj7zsK02n6UWBd9fiHumhC2T6bNDR0dHR0SWrSzQYrnPZQYMG2Zbod9xxh/nqq6+8MUB66c5ONYZJ9p3miO3jjz+2z5oDgFTT3f9qiFqclDh8onUk0uLRLfmtWrXy+pJLP6BKcaCHhiqInhtbtmyxKQ2CXCvrYMBYKUYGTPy9TWmidCwKCCutyS3X9LL9ohQnamH9SLfnjmm5rumHzXzIDLrl+UgaGL+wed06lApF600XlWXQlP+zqVsSCdSL6k2pWuqce1lkO3WxQcPOPK26bcH+zJ1T7bZr2o/WL4n0i1rEqFWqWsO6gLMCoL///e/Nww8/bIOqwX43jVrhap5EAoNh61EqCS3zueees0HWTp06mREjRhwT+A6b13Hl0LhEU1yIW6aCyZpPZdH61Sra9buyuZbHjloFK6WMXoPj4om2LfHqXEFUtW5XapvcBuldXWl/ad0qv1pEu/3nArWJ7E9Nq89xsM5Vb7169TLPPPOMLbfWoTsBlKbFbYd/Ptffrl27bPtD86nFttKaqD9YNtffs2fPSD0tW7bMbo9/mDtewwTrOLjPo22jaFy0/RFvnGg79KdErf110SaszlWesWPHmkceeSShfZ7bz3IyTJ8+3bRsmf2ul6DcHrfppAtHLVq0MDfeeKM3BACAvHnggQfMunXrvL7YGjdubO655x47j37PlY4OSDcdrzVq1LDnqjomkR6XXnqpadSokb0jGABSSQ0cdde+LtoXNIprpISC5/4uIyMj6/DKktZt3749a9y4cVmjR4/OGjt2bNbhH9PQ6RLtNH+YAz/uz7p/7K1Zv+xTzXbdBl+TtXvvDjvugy/eyzZ81Jt/znp14ct2nATn9Y+Tp2b0jYzTe/Ev03VahpYVNt4/LhXWbPk8q+dz7SPbnChtj7bXP78bFqwX1Zv6NY2OlR49eujCS7Zu0aJFWTt37szq3Llz1urVq+06gv2iYc2bN88aOHCgNyQ2tz4t39HytFwtSzTOXxZN747r4Lx+Wk6dOnUi86lcbpmx+NeneYYOHZo1ceJEOy5YtiBtt5tXnZsvEcH1ah3qYtV52P6KVh9+wToNzuPfjkT3pWjaaNvsX2afPn1s57YjOJ+/378f3XA3Lrj97tjw15Om1XzBuotG06n+3TK1bv88wbL6xdofscb516lp5s2bZ9cTHKcuWJ5owtanTusM1kWidZNT+t1ROWJ1hUGVKlWynnzySa8PAIC8a9CgwTG/0cGucePGWa+++qo3R1bWueeem/Xwww97fUB6rV271h6X77//vjcE6XDJJZdk9erVy+sDgNSpVatWVt++R2KjBU1YLCEZXVpbnidDtJbnAIDCqai0PK9ataptva87UAAASIZLLrnE3h0XxrU0V+svP7X6peU58gstz/MHLc8BpEtxbHmelpznAAAAAIC8U0Dy1VdftcHJYOAcAAAAyUXwHAAAAAAKOILmAAAA6UfwHAAAAAAKKILmAAAA+YfgOQAAAAAUQH/84x8JmgMAAOQjgucAAAAAUAARNAcAAMhfxSJ4/uijj5pJkyZ5fcmh5Wm5qbRr1y7TpUsX88UXX3hDAAAAAAAAAADpUGSC5wcOHDB33nmnva0RAAAAAAAAAIC8IG0LAAAAAAAAAAABRSJ4rhQqZcqUMaNHjzZNmjQxJUqUMHXr1s2W7mT79u3muuuus+PUQl0t1R2lX9HwsHGx7N27106v+bRspVlxtG6VwS3X3yJe65s1a1akPP559eqGV6xY0axatcoOBwAAAAAAAACkT5EInnft2tVkZmaaHj16mEWLFpmsrCyzYsUKc/7553tTGDNu3DgzfPhwO50sX77cvirwXr16dTuPuiuuuMLMnDnTjotn8ODB5uabb7bzXX755eatt96ywxUAHzZsmHnnnXfsuJ07d5oJEyZkC66PGjXKrts/r8ZrWx566KHIfLVr1/bmAAAUZLqA27p1a68PAID88cwzz5gOHTp4fUB6VapUyUybNi3bf3Gk3uOPP25+/etfe30AkDqKd3bu3NnrKx6KTdqWPn362B/w0qVLm9NPP91s3LjRtjBfuHCh6datW6SFuN6vX7/emyu2gQMH2sC3KADv5lu9erUNoqjluGtBvmTJEhsMdxR0P+WUU+x7BcsVNNd81apVM/Xr17fDAQCFR6tWrfijCADIdy1atDAXXnih1wekV9myZU3Hjh0j/3WRHk2bNjX16tXz+gAgdZQt46KLLvL6iodin/P8xBNPtEFrtfR2nYLZeaXAun+ZwZbwAAAAAAAAAICCq8gEz/0tyhOlecqVK2dvOUg0z3ki1NJ8xowZ2fKcJ0LzbdiwwWzevNmWp2/fvuQ8BwAAAAAAAIB8UKRanuv2MOUhV6qU4ANDo7nvvvvsqx446lK35DToHaQW5iNGjIg8vFRdIg8i1Xzdu3c3tWrVsuVp3769adasmTcWAAAAAAAAAJAuJTIzM7O899bs2bNt3taCasuWLTa/OACgaJg+fbpp2bKl1xdOdwoVdHoQdeXKlU3VqlW9IQAApJ/SReqO1jPOOMMbAqTPwYMH7TGovPu6yxvp8emnn9p883qGGgCk0sqVK02FChXMmWee6Q0pOJKZVcSv2Oc8BwAgGXQBYNKkSV4fAAD5o0OHDmbs2LFeH5Be33zzjWnUqJH55JNPvCFIh9tuu82mowWAVOvcubMZPXq011c8EDwHAAAAAAAAACCA4DkAAAAAAAAAAAEEzwEAAAAAAAAACCB4DgAAAAAAAABAAMFzAAAAAAAAAAACkhY837t3r8nIyDDjx483a9as8YYesWXLFjN58mQ7Tq/qBwAAAAAAAACgoEpK8FzB8Llz55p69eqZUqVKeUOPUFD9gw8+MFdddZXp3r27fVW/hgMAAAAAAAAAUBAlJXhetWpV07FjR1O5cmVvyFGrV6825cqVs9PIN998YwPnW7dutf0AAAAAAAAAABQ0Kc95/v3335uTTjrJvp8/f77tVyD9u+++s8MAAAAAAAAAACho0vLA0J9++snMnj3bBtGbNm3qDQUAAIl4//33zXXXXWd27drlDTnqiy++MM2bN7evRY2298svv7Tvi/J2ptKjjz5qSpQoEfX4Uf264ZMmTTJ33nmnOXDggO1PBa1LZdExXVipflasWOH1Id1U9+4Y1fGtLlnS9T1TFD4HAAAAxUXKg+cKmK9du9acf/755pJLLjGHDh0yBw8eNCeffLI3BQAAQHYKLnXt2tXs2LHDG4KcUgBw0aJFNoXeW2+9ZU455RRvzBEK3PXq1cvrQyIUtO3du7f57LPPvCFIJ13gef75570+AAAAIPVSHjw//fTTbc5zlw9906ZNJjMzMzQ/OgAAhdXIkSNNy5YtvT4g/+3cudO2Oq9YsaI3BEBx8PTTT5v27dt7fUB6VapUyUyZMsWcd9553hCkw6BBg8wtt9zi9QFA6gwZMsQ+97I4SUrwXA8AzcjIMK+99pptVb548WIzefJks2XLFpvf/KKLLrLjxo8fbz766CNz/fXX24A6AABFRZs2bUzt2rW9vvylFsUKmrpOrTUdpTgYNmyYTRmgcS5tQKx5wrh0IK6rW7duJNWB5r3//vttChD/sjRe07l5oqVbcK3O3377bdOkSZNs07333nuh63T85Qob77i0CbNmzYrUhTr/dquVsdsG12lazSuaVuO1rW681u+W7Yb5UzMEl+lfnmiZbpw6f3nCRNtvelXdqQ4VPA8uR/P5x/vLOGDAgMjyVFaXIkPilT8oWBc6F3Q0rkuXLmbMmDHHLCvaflQ5g+t0ZXLbGOs40zTBYzO4TdGOG02nVuejR4823bp1y1Y3iR53ElyfupwcB8E6Dc4bqywa599+dVq2v87882icpvUf4+p32y3+9QXn16vSoOhz5pavTvvR1YN//4j6g8NEZVG9q/4bNWoUWYf+h/i3Jzivf9vCxoeJ9T0T3H/++tdr2DEd3Gf+z0Eq6EKu/n8B+aFs2bKmc+fOXLhNs2bNmpn69et7fQCQOjfccIO5+OKLvb7iISnBcwXCddWhe/fuke6mm26ygXOpWbNmZLimI3AOAEBqKMCk4JBaHWdlZdnXCRMmZAu+jRs3zgwfPtyOv/zyyxOax0/Dv/nmG3snmabXa8OGDW1Q3gXVBg8ebG6++WY7XoFwBcs6depkpk2bFplHywgLZCm9iNahoJvSjjz00EN2+LZt28zy5csj6+3Tp4+5++67bWDKBbRE49SNGDHCrtMf+AoaNWqUXZem17pUbje9WlXoDjq3PNWL6C4DR4G8OnXq2PFKjzJjxgy7vW6ZEydOtNvoAmht27Y1V1xxRWSZqiNNr3GqI9W72w9anoJs0cqvddx11112Oje9yq/hWqa2R3Wo5anfT/vdP1794t8e1bOoHiRe+YO0T/r27WuX7ZanbVHA3tmzZ09knyq1TJkyZex+9B9f2s9uP9aqVcvOp2mdzZs3mw0bNpgGDRokdJwFj83gftb6/MeyU7p0aTu8R48edr+69CGxyhsm3nGl/acyBvertk31rDK7OlWn96rn3bt3J1QW//brGFBAWtulxi8aphbL/u3XMaFzd43TcsUdEyqrf316DX4X6HM7d+7cyPLdZ0LT6lhy2yXuc3D11Vfbfj9tt+ZV/WtZSgkp/u1RXWp+lUsSOR6CYn3PqIv3GQg7puN9DgAAAFBwpeWBoQAAIG9cC2HXctF1CiYq2CMKVi1cuNAGm11+a72qX0FZF9xRcOuss86y7xOdx0+BIgUOFUwUvSqY5KegrAt0yoIFC2wQygW8NI9a8Sp4Fy3IGEaBKrdeBUsVjFLATAHU77//3vTs2dOOEwWrFAjMyMjwhhxLy3PbrfIqrZwLZqoO1DmaTsv003aqRamoTlW3/mVWq1bNvoqCoOpv166dN8TY9xqmINvGjRu9oUeorrTfXZ35uf3mr1O9ql/DXeAyp/zb4/argo1aXrzyBymAqG1y+8TtcwXn/bQOt09dIFzTuWFah+p12bJltl5Vv/5t1PBzzjnH1n8ix5n/2NQytH1+weM7lnjlDRPruIq2X/WQTE2jfSD+41zLUnn1fIBEyqLgs2udqHpQffg/V9WrV7evjsYH96Grz0S+CyTa51bvt27dGtku9+r/7ojHvz2uLtevX2/7c/u9E628iX4G/Md0op8DAAAAFEwEzwEAKAQUwFLwRkEcf6dgjvKLilo0KkijdBz+ALv6/dTq1QV2Ep0njFp1uunVetVPwSS1uBQXoNQ0/nUoQOYC/4nQdka7DVx1M3Xq1GMuMPTv39+bIpzKGY9asUZbnn8741E9qxWvpnfL03sNExe0dtvgWs+GcfstWH4F+nQRQeNzI9b2xCt/kCuff3natuBzb/zboP2o5fr3s45VBSNdQFTbqCCxAtcu2OwCtokcZ/4yadkKlGq/atpgio54EilvNGHHVbT96oTVqZNoWfyf/0SE7UOtR+tzYn0XxPrcugtOCnKLXhX8dhefEhFte3L7vROrvIl+Bvz7L9HPAQAAAAomgucAACSBWoZ+++23Xl/+UDBLrTjVqjIYZFeryLCAVG7mcUE/f8oQpVOIxgUENU1wHao31yo0L7T8aBcY/K18c0KpHbSd/lQqAwcO9MbmnAKYaiWr+giWUS14Vdeqc/WrrlzQL1YQPUjlVNqIVIhX/lTyB38VcFVLc7Wmdncc6MJDbo8zBWs1jeZXIFfB1ZwG0YNiBc6TfVzFE6sseZXT74Igd/FCwfcvv/zSvoalbMmNVHzv5OdnICc+/vjjY+6oANLlxx9/NEuXLjX79u3zhiAdPv/8c/ubCACp9sknnxS78wyC5wAAJEGLFi1yFDRKBdeaUQGjROV0HtfSV9vqD0DFCtCpxaVaXqYyiKfl6yKAgpHJoHQ1CuTpooK7iOBasuaW0mGonhV4i0eBOAXkVM9haVhcnQb3m/qDrVyTJSflF1c+//TaP9pP0eh41Hb796Ord5dOxLWmVr2MHTvWXHDBBXb/5PU403KVgkTljZV2xS+R8vrFO66i7VcnrE6dnJYlUWH7UOvRQwFz+l0QRhcrypcvb959991IfzKk4nsnp58Byc3nIK+USubFF1/0+oD0+vrrr82ll15qL+IgfX7961+bp556yusDgNTRsyz13KjihOA5AABFhAJxasWpB+j5W82qpaseJBgMwEpu5hF/QEqtT2OlR3GtSzWNAoeO5lOL4bC86vGCiEHKeayAp/9BhVqulp+TlttB/vXrIYnRUpQkwqVl8T9wVHWuVs6ql2B9aDtcSpJgWgoXQPbvN72qP2z6MGHB1ljilT9I+0T70E2v7dH+Wblype0P41qV+/fjzJkzzZIlS2y6Fkdl0b7R9rqWyrk5zrQOHef+B0i6POb+9Tlah9KEuOM/0fIGRTuu3H71P2/AlVHb4QLLCrw72lZtn4LZuSlLPMq7H9yHSut03nnn2WE5+S4Io+8gXQBRi+54KVtiXTwIys3xEE9OPwOSm88BAAAACg6C54cdPJRpHnjpNtvpfUFX2MpbHOmPmf+POLJzt6yri/ZnM6+0Du0HoCA7ePCgDZIlk1os6wF5CrK5z5lanipYEy2gmpN51P/YY4/Zz66bVgHeefPm2SBdtFuGFRRTa1t/bnVtuz6nYcEyF0RU6hIFDlVXsWh6lVcUeNfyFRxW8Cw36RRUpuHDh9vgrCuvqJWttj03gTctU9vrrzvV+YgRI2z9qJx6Vbk1TtuhQG208mu45nX7Ta/aj4lurwv8ar5Evi/jlT/I7RMdS2571DpZ6XWi0Txq/a3tdvtR+2DatGnZ0myoLFqnlqUyOLk5zoLHs5angGu0tB4K1mu8AqkK4iZSXieR40r7T8et/zjQZ0HD3T7QNrn53e+dypCTsiRKQe29e/dGyqLlKxVSWN0l8l0Qxl0AiZeyxe1r1Y3WG09Oj4d4XP0n+hmQ3HwOAAAAUHCUOHzSn+W9t2bPnm1atWrl9SVOJ9Vz5861f24bNWpkatas6Y2JPS6ntmzZkqdbT8MoAD1g4u/t+0e6PWdKlUz+rc7JVNjKm0xq3dOpU6dIax39oYsVEMoL9wdWLa4c/dFJ5A+XplFLrNzm2S0O1PKqd+/eNkAQ7Q9nXiiYoO+KRIJI+hOsP9OpOpYQ2/Tp003Lli29vnCFYb9UrVrVHtMKXsaj38OhQ4fa7i9/+Yu54447vDEAUHDofEYB8VT/Pup32F0EyE1QG9nVqFHDnl8NGDDAGwKkz7p16+wxqM9148aNvaFINaXKUaxFF2gBIJVq165t2rdvbwYNGuQNKTjc3ZfJlpSW5wpoKzher149U6pUKW/oEbHGFRQKPj9x20u2S0cgesaiV8zQmf28vpxLd3kLCp2AudY9us1cnVpYperPnP686bZo3c7euXNn+yAsl58UAHJDQfPHH3/cnHHGGaZv3765ar0MAEXNggULbLCXcywAAAAUNEkJnqu1nRLG64FjQbHGJYuC0c/P+Yu5eUhTm8pkwjvPmSvvP8cOl7XfrjKtH6lvh6nzpzv58Mt/RIYHA9r+5Wq8Xvfsy/uDyNo3+bV9zWnaFZXHlTVYXi1Hy3Pj/MsOBuv9/Zpm4OS7zdxlr0bqyM2retM4dW65qi9HQR/dsuxuW1VrIdGrP0+uXl2uTsfNq1ZGidIfK93WHK2VspblyqJOwXZRa/X777/fdsFxqaQ7LrTdWp8/t2aw3vzjtA3+OnF1598W5dXM6Xa45YStMzhO7zVM4/Verc00fNasWXY+/7zap2HLzAv/MtX5jxvVzZgxYyJ14Mrq+I+BRHKuqrwqt27nVr5Zd5u7fx+ojt0y1eXk2PGXx18/WobG+ce75UbbH45/HtWDjgknWFZ/3SF/ETQHgGO58xqlNNFDLgEAAICCpsjkPJ+zNMP8oXV/s2X3ZrPj+62mV+sBZtP2tXZcjSq1zRsDlpv3ntxgu0onVzUfb1xmx1163i/tME0fZsq7o+1yNU296g3NghWzvTF5c0+7QXbdv3mmdcIBeQXd3TYMvmOcN/RIAFxpXNy2qNM2jpz9uDdFbPsP7jXvfjzHZDy4yLw96DM7zNXPsjULTdlS5SLrVOBd61Mw74knnrC3hakFuHJ+KpWK/gQpSPj9999Hcl3qVf0anltan/5Y6YFL0ShFimuRrlbiCva6oKPyb5YrV86OU+5LpejwByRTQXlG1YpK61TA3z3cy7Vod2XVNG6cLjR9/vnnkcCaqzu1uNcwBbLfeecdO59axGs7EgnCLV++3OYodet0LehVB0ozoVyqbpym08PLRA/l2rdvn71ooVt/Vcfly5e361agVqlp3Hwa53+AVm4pzYpbptaj28X926h1KH+re1iYtk1cwNvNO3DgQNsfi9sXOiaUAkjLdNsiLsitcmi4jist1x+wjkbz6Zh1y3R17ii4r9yuGueOyd27d8fcH1qvLsq4Za5YsSKSx1b7Use8yujmTSRlDVKLoDmAwky/I6m8y0+/YfotS+U6AAAAgLwoMsHzq/63halZ9QJzYumTTetG2QNGCk671uPqZi2ZZL7avt4bG9uNDbvaoLScfVqNSEA+nn9OWWF6Vh4U6dYs3uSNOUrBcAXm2wy8JFuL7pw64LUwv7ru0ZzBTS5qZrZ9tyXS+jwelUUpYFxKGLfNZ1asbm5t9n/2fYVyp5p9B36w61NQVwFpBXXVwlUtdhUsVpBRAULlL162zAvAH35Vvz9w6IKWieYEV7BQgdxY/C2WVa6PP/44EmBVTqaePXva93rIlALSblyqKMjqWskr97YCzaIgp79lsR6G58bpT+QFF1xgA6DirzsNU+to9wAxveqBXKrzeDTtjBkzjmkd7urAf2FDAV0FfRX0U6BcAX1RTivVq6M7ARQAdtuh1tuaL68XJfytp8O2UfmkVU/6k63Aso4LbZMuOriyJouW7b+N3D1cL16du/IoEB4tGKBgff369e17HScKHCjgLWH7Q/Wq+tBxrXyGwQC+1qMLRNpHtDjPfwTNAQAAAAAo/IpM8DyWl+c9bVuNu1bZCoinWuMudc3Irf0iXc1GZ3tjjlIr7mffGGhe7780EqwuTJo1axZpAes6Fyxu0KCBffjs119/bVukqz8vFJxXq/NoAXQFEsePHx9pdatXBX4LopkzZ9pXV3dq1e2nYKkC0wqWButOAXl/fftbHsfiWnYpqKpWZMF0H7mlFtP+8uS15ZgCjGqx7ZarILUufOAId9Fp8eLFkXQ6Lt2LuLsvRONca3ykz08//WQee+wxe2En0aC5Lojo+zKaf/7zn3Z8sNPwaHThLWyed99915viWPq+CZvnb3/7mzfFsXSRKGyeOXPmeFMca82aNaHzqPvPf/7jTZWdvvvDplcX7YKdLjqFTa/uhx9+8KbKbvv27aHTq4u2L7/77rvQ6dVt3brVmyq7/fv3h06v7quvvvKmyu7QoUOh06tzF2CD9H0QNr26WL8BelB22DyffPKJN8Wx9LsVNo+7OyiM7iwKm+eDDz7wpjiWLqiGzaPfjWj+9a9/hc7z97//3ZviWO5zGezUcCAanXuEzaMuGj1YL2x6dfo+CaMGDGHTq4vWMODbb78NnV6dGhSE0W9w2PTqduzY4U2VnZYVNr06PQcpjMocNr26TZuObXwi//73v0OnV7d2bfSGLm+++WboPKtWrfKmOJb2edg8Okai0bEVNo+OxWj0ex42j37zo/nwww9D58lrQwYAAAD4HD5hzfJ3GRkZWYdPuHLVHf7TmTVu3LiswyeTORqXk+7wn4zD/wWze3Xhy1lPzeibtXvvjqyez7XPWrPl88iwAz/uz7p/7K22XzSu1cP1Iv2Om94vOCxsmtzSclQulS83PvjivUhZgtsY7NerW5fb/uC8Wl6QplV9ql6D/Yf/UGU1b948a+LEiXZcmIEDB0a6IDd/2LhoDv8xzqpTp07W4T+n3pCjNE7L03JFy3X9mr5z586RccH+eDSdpg9bbzSqF/+2+fv16t5r2cF60OdQ/dqmoUOHekOPlFvbr+F55ZavdfXo0SOyH/39/u125Q8O89d5Trl1+bdHy23WrFmkrrUO/z5XGVxZxfUHt0Ovh7/esk0bi5YfdkwEj6tgfywqm7owWo7Kq3L7xdofYTQ82jhtU58+fY5ZR0Gk3x2VM1ZXGFSsWDHr/PPPt8debrporrjiitDpGzdu7E1xrNatW4fOU7t2bW+KY/36178OnadSpUreFMfq3bt36DwlS5b0pjiWPhdh86jbt2+fN1V2zz33XOj06jZv3uxNld2kSZNCp1e3cuVKb6rs5syZEzq9ur///e/eVNktWbIkdHp1M2fO9KbK7osvvgidXt3YsWO9qbLbsWNH6PTqBg8e7E2V3b///e/Q6dX96U9/8qY61oknnhg6z+9+9ztvimNVq1YtdJ5OnTp5UxyrXr16ofPodyCaq6++OnSeBg0aeFMcq0OHDqHznHvuud4Ux/rNb34TOk+FChW8KY71wAMPhM6jLpq//OUvodOr2717tzdVdqNHjw6dXl3YebJMnz49dHp1S5cu9abKbv78+aHTq5s3b543VXb/+te/QqdXN3XqVG+q7DZs2BA6vbpRo0Z5U2X33XffhU6v7vHHH/emOtbPf/7z0Hnuu+8+b4pj6bs9bJ7bb7/dm+JYNWvWDJ2nXbt23hTHuuyyy0Lnueqqq7wpjnXdddeFzqPv4IcfftibCkivtWvX2uPw/fff94YgHS655JKsXr16eX0AkDq1atXK6ts3ObHRZAuLJSSjS0rLc+XgzcjIMK+99pq9VV0tJCZPnmxbmMQalw5KQ6KUJM+88YhN2fLIpD+YFpccTe3gHsKp8bOWTLLvgw8OTTatU5QeReXLKy3jjx2fNK8vmWjL37zfhTbnuXswqdK5KBe8hmv7f3fDn+zwvFALWOU7V6oWl2IjmBJELahdXudkUKv2ESNGRFLFqHMPU1T6C7VMV1oLDS9btmzM/OiJ0LZom7TMw3/47HqD25gbSi2iFCoq5zXXXHPMA7LUcltpXu666y7TokULb+iR1uPafqVHCW5/PP6UNupE9al1qZWs8m1ruFr4q8VsIrmyNY2W4epcXSLpQlRelVvrUhoatz1qcaVtVL/bx2oJqzsc4tF2KEWKOx7VCnNioEV/LFqv0uW4bXEttrV9Stvihmuf6Lh3aVxiOfxH3LZ81XzqEjl24u0Pf0obdWq16Y4fd7y6cZ06dTKH/9jn6U4A5Mxxxx1n61ytFLUvEqVjSvnuo1FLSY0PdroLIRp9FsPmUavdaJ577rnQeWK1UNbxGjZPtBbXotRLYfOo0zEf5o477gidXp0+I2E6dOgQOr26Cy+80Jsqu6ZNm4ZOr07fTWF+8YtfhE6vTmm3wpx77rmh06uL9v2r752w6dX9/ve/96bK7uc//3no9Or69Yt+rqPWvmHzuOcvhNHdTWHzjB071pviWLoTImwe/UZG8/rrr4fOo5bv0bzyyiuh88RqBfz000+HzqOW4tHo2SBh86iL5u677w6dXt3JJ5/sTZXdLbfcEjq9umjnPq1btw6dXl29evW8qbK78sorQ6dXd9VVV3lTZVenTp3Q6dW1bdvWmyo7pUQLm17drbfe6k2V3Yknnhg6vTqdD0SjFvNh8wyM8ZwU3S0TNs8zzzzjTXEs3f0TNs+4cUefWRSku3zC5nnjjTe8KY41ffr00HmifS8CAAAg50oogu69t3SrX6tWrby+gkdBdwUWizsF4JV/XQ8eLagU6FMQUkGcRIKNAIon/fmPFmR0CsNFgKpVq9qgjYLDokDI0KFDYwa55YUXXrDBYQAAkqFGjRr24r8u6ADppouMOgb1X7Bx48beUKTapZdeap+LpEYZAJBKSq2rZ+INGlTw4pGJNC7NjWKR87yo0UNA9YBRPcC0oNIBq9az/octAkBRppbbN9xwg9dnzLXXXmvmzp2b45boAADkhS7cBu9sBNKlUqVK9g7QmjVrekOQDrqDRv+9ASDVnnzySfOrX/3K6yseCJ4XEgqYP/DSbaFpWQoatTbPSfoPACgKFKhQ+p8ggugAgHRSmp7//d//9fqA9FL6TP0HPPXUU70hSAedYzZo0MDrA4DUUbYSpeorTkjbAgDIV0UlbUuilM7lqaeeMm+//bbtJ20LAAAAAAB5Q9oWAACKALVEVx50Bc+bN2/uDQUAAAAAAAUNwXMAAPJBs2bNbBCdW2wBAAAAACiYCJ4DAJAEH3/8sdm2bZvXl7i6det67wAAyLtPP/3UfPvtt14fkF4//vij+de//mX279/vDUE6rF692nz11VdeHwCkzmeffWZTahcnSQue792712RkZJjx48ebNWvWeEOPUL+Gq9M0mhYAgKJED2rS7xwAAPmpTZs2ZsyYMV4fkF5ff/21vatu5cqV3hCkQ/fu3c2QIUO8PgBInQ4dOpiRI0d6fcVDUoLnuuIwd+5cU69ePVOqVClv6BEKlH/xxRembdu29gu9QoUK5oMPPvDGAgAAAAAAAABQ8CQleF61alXTsWNHU7lyZW/IUeXKlTMtW7a0r3L22WebgwcPmkOHDtl+AAAAAAAAAAAKmrTnPN+0aZOpVKmSKVmypDcEAAAAAAAAAICCJa3B86VLl9pW53Xq1PGGAAAAAAAAAABQ8KQteK7A+bZt20yzZs1odQ4AAAAAAAAAKNDSEjyfP38+gXMAAAAAAAAAQKGRlOD53r17TUZGhnnttddsWpbFixebyZMnmy1btthu+/btZvfu3Wbq1Klm/PjxtluzZo03NwAAAAAAAAAABUtSguflypUzHTt2NN27d490N910k6latart9N4/Tl3NmjW9uQEAAAAAAAAAKFjS+sBQAAAAAAAAAAAKA4LnAAAAAAAAAAAEEDwHAAAAAAAAACDg53379n3Ye299+eWX5vzzz/f6Ch49nLR8+fJeHwCgsPv888/Neeed5/WFO+6447x3BdfZZ59tGjdubE477TRvCAAA6XfmmWeaRo0amcqVK3tDgPTROVutWrXMZZddZk444QRvKFLt9NNPt597vQJAKuk8Q/97C+J5xr///W/vXXKVyMzMzPLeW7NnzzatWrXy+gqeLVu2mOrVq3t9AIDCbvr06aZly5ZeX7jSpUt77wAAAAAAALI7cOCA9y65ilzalrXfrjKtH6lvZix6xRuCVIpW348++qgpUaKE7d5//31vKGTSpEm2fhDfrl27TJcuXcwXX3zhDckb1ft1111nl1sQ6LPhPif5Va5E6ljj6tata49dAAAAAACA4iJpwXOlU8nIyDDjx483a9as8YYac+jQIduaXcPVTZ482bYeR+GwZ99Oc9eIDjZInhMPPfSQyczMND169PCGpJ6uMN15552RYKSCfckKuobxXyBwHRcKkCgFrZ977jmzevVqk5WVZd566y1zyimneGOTL9kXIgAAAAAAAIq6pATPFQyfO3euqVevnilVqpQ39IiSJUva2/G7d+9uu5o1a9r8tqlSo0pt88aA5aZ9k197Q4oHBbcV5FawO50KSn0rMNi2bVub402BSHUrVqxIaf5+XSDQegYOHGgmTpxo319++eXeWBRE2mepDlInaufOI5/VihUr2teCTJ8jfZ66du3qDQEAAAAAACj6khI8r1q1qunYsWNCyeK///57c9JJJ3l9yXHwUKZ54KXbzJX3nxPpPvzyH97YY8frvYbJ0Jn9sqUc8fcrID1w8t1mwjvPReZ14/T6/Jy/mJuHNLXD9eoPXLt0Jm4+Vx7N51+/K5u/DLmhIPYt1/YytzzVLEetxINBd3+/6qLNwEvMp5v+ZW4f1uKY7dT44PYlIthCPJiuwo1Xl2i+IrXerVatmrnvvvu8IdkFW4m7FuJar9YzbNiwyLh0pKbQnRquDoLbH62sGq7OcfXk3xYty82X6Ha4lBxuPi0zkXrXfPfff78ZM2ZM6DpzW+f+7VBgedWqo8dz8NhxZXVlUadtmTVrln31j3fb6IY5wXoLThOsH//dBdpGrcvNH9yXYdzy9CClqVOn2m3UvK4Oom2jxKvzaFROrUfr03o1X7Cs7733Xugy/fvRv+0SLGsi21+UffbZZ2b79u1eHwAA+UPnTlu3bvX6gPT68ccfbaOL/fv3e0OQDl9++aX55ptvvD4ASB3F37799luvr3hIS85ztUxXuhalbTl48KCpU6eONyY5SpUsY5647SXz3pMbbHdjw6OtIxWcHjDx9+bS834ZGV/p5Kpm5OzHvSliW7ZmoSlzfFk739jec8yClbMjweMp7442f2jd346rV72hWbBith2u8S/MHWzG3TvPjnu9/1IbHNfwq+u2NPsO/GC+3rXJTqtX9Wt4Xmkbh/52krlnTNccBbOjuafdIFv2i87+hd12bcuE++ab8mWPtJTV+LcHfWYa1vp/tj9Ry5cvz9ZCPBktgTdu3GiXGe2hgq6VuDp90BXwdAFJzaugpNLMaJzSDKU6ADh48GBz8803R1qrqw6caGXVBSrdteHKtnnzZnsxSsFQjX/iiSfM8OHD7XzalpUrV9rtise1KnbrVD1qHyVi3rx59in6rqz+ustNnatT62Y3r1pn165d286jeXv37m2uuOKKyHJV1iFDhtjxKou+W9q3b29GjRplRowYYetH63DbuGjRIjutn4491b+Wp2l1J8Fjjz1mjyWVR0H+d955J1KeCRMmRLZRtC4FmzU+uC/DuLJouzt37myXqXm13fG2UWLVeTSqT61H69M8mtf/uduzZ4/d52GfAc2r4WEpmFLxWS7Mrr32WjNu3DivDwCA/NGqVSszevRorw9Ir6+//treka7/Ikifbt26mSeffNLrA4DUUdYHxVuKk7QEz9Uy/aabbrJpWypVqmSDP8qFng4HvBbe/uB0k4uamW3fbYm0/o7lzIrVI/OqdfeIu16NBI8VpFfAWs4+rYbZtH2tfb9my+dmyeq/21bbapWt11VfrTC79u6w815dp6VZue4DO61e1e+WGcu+3ZnmyRYvm56VB9nu5Z6vm0MHfvLGHqEyKmj/7BsDbcvwgkgtYGfMmBG1laqCls8//7ztogXDg9avX++9C6fgpmsdq2Dzxx9/bAOCUr58eRuw1LpcCg2XUiNVFKB1KV6qV6+erfzRyqqg6wUXXGCDm7Js2TKbEknBSgXS9blyrYrLlCljA/SJbIf2gWs5ra5///42uJ0IBbY1r6h8U6ZMiQRPc1Pn2jbdQVC/fn07zM/N69YnV199tW1hoYty/rLowoRbbk7omNNFCrcNKo/+fGpZ2g69LlmyJFu9al1uegWa85LaJNY2ugsPseo8t3L7GdC0sT7LAAAAAAAAhVlagud+CqKJbucqyhRYV0tt1ykvuALbUufcy2wL9i27N5vPNn9k+xNRtkIZc/+cW83Irf1sd+vINqZk6eO8sUco7YpSt6hFvFqGF0Su5a2Cqwo0KoVFIi2kY1EA2h9g9NOyddeDa3GrVwULC6J4ZVUgdcGCBXY71ZqjQYMG3hhjmjVrZoOvrhWwukRysI8cOdJO5+ZRYD+vClOdOzoeTzvtNHt8+qk+XN2o07EbnKa4SsVnGUDhpxRP0S6q6TuiefPmRfK7Qtur2+YlFdup335/qizX6TvYUd37xwXTbSWTyqPfACfYr7Rf6nLLX5/J4BoLRKuTeOMBAABQPKU9eK4gmhx//PH2NdVKlyxjX11KFbU2VwoVtRhXuhdxLcaV6mTWkvj5g+OpUO5U8+4nc6KmTlEQ/dwqtczUd8eYsqXKRYLqeaX1KWWLUre4FvGJ+CFzj20Vr7pRupkfDnznjTlSf2VLn2h2Hx6fbGotqzQPSrPhb+Xq/hz6cz3Hoz87ai09c+ZMb8hRWrb+QLoWtRkZGTZNRUEUr6yuRbbSZVSpUiUSxNX0atkdtv2xqH510UEXH0R/8tWSOK9yW+eafsOGDbYlvcrWt2/fSM5ztaYXlxZF45VCRSlOgg8qziltt3JVB1uNqzyqj3T9kY61jYnehRGNlq3nTSTSojynon2WAaC4UOBVvyE7diT/fMnRBXKd6ygFmf+irvvt0m/ZXXfdFRmvV/UnM4Dv6PdJdyzpWQ9h/XmVjvoMcr9liTQ8AAAAQPGRlOC5Hn6o4Nhrr71m0ycsXrzY5jhXrnN/vnN1ykGsVBMlS5b05k4tBcj/2PFJ8/qSiTaFSvN+F9qc5+2b/NqOb92oqw10a5yC6nc0v9cOzwsFw/t1edr0efGWyAM1/Q8JFaWOUaBer8mgFufj/vaMTdmSk2C8pq13biP7QFDVzVUXtzBVK5zljT1Sf6orty3ugaHaFm2T5lGKGjdeAXz9gVLgW8E6pbxo0qRJttZP/nQe6iSvf1T0h0fLVaDRLde1glXAWalAFAjV8LJly9r+vHIPUlSaE+WY0/u8BlnjlVUBVAW69We4RYsW3tAj269850rVovnUJZJKQ8tT2hFX/rvvvtvccsst3tjcy22d62KA0jvpDhUdPwrGqkW9qKzKRe72scYr33Yw4B1G+0Xz6FjUMal53cUZ1ZG2+5577rHTqHN1p/Iol5c7htXl5KJOTuVlG+Nx+9ptSyLHR358lgEA4XRxUkFx/baG0bm4fjfd97Be1a/hAAAAAHIpMzMzy98dPsHOOnDgQIHt1q1bd/h/Q3QHftyfdf/YW7M++OI9b0jBpPJ1G3xN1u69O7whAFA86Xcn+FsU7AqDKlWqZD355JNeH1B8LVq0KKt58+ZZO3fu9IYctXr16qxmzZrZV0fTHz4ljXQTJ070xmRlDRw4MGvo0KF2eRqnaSXWPGG0HP/0derUiZRB8/bp0yerR48e2Zal8ZrOzaNlhNF2uvK56dx2jh49OjLcv07HX66w8X6x6lXfkyp/sB40j4ZH+x4N1qN/G4Pj1Gn5bl1u2O2332471+/Wp2X5l5eX+pTgeqPVhRNcjjuOtF0a17lz58j+0fAvv/wyMl5dcPnBOk50e/LDueeem/Xwww97fUB6rV271n4m3n//fW8I0uGSSy7J6tWrl9cHAKlTq1atrL59+3p9BYvO11LRpT1tS6p9vWuT2XK4U+qUgsqljmnTsFtCDwoFAAAoinQHi+7k2um1qtar7r7x5/EeN26cvbtK49WaOpF5/DRcKcoOn/ja6fXasGFDM2zYsMidRLpzS3fnaLzu9tEdNp06dTLTpk2LzKNlhOXwdne/NW/e3KZK0cOjZdu2bTbNmltvnz597J1OuutH69WdPaJx6nSnk9YZLc2KUra8/fbbkbu61Llt1jo0PuwuLw3X+CBto+4oUpm1ftWjhmmZKsPAgQMjzy5RN3HiRFtPSq2muuvRo4cd9uKLL5pnn3020h/2wPe81qfqrG3btvZuLFceHQvaV2F3Ual+lfpN07j1aZtUf47Sybn9o3QtFSpU8MYcfUaTS6Mm2m6lltPzZnKyPQAAACjcikTwXClLWj9S36YNUfqRP9w4IGl5xJNt6Mx+x6SOAQAAKEqCQV7XKSipoLIowLlw4UIbHFXAVPSqfgXDXVBUge6zzjqSUi7RefwUYPUHdPWqZ0n4KVDrAqaih3Mr2O2eLaJ5lNNbwdyc5BBXQN6tV0FXBVoVpFYgVqkMe/bsacdJvDQr69evt+VM9KJBPNpGBci1XlE9Klis+tJ2ax+67ReVv1KlSl5fzuS1PhXEF399ufdunJ+C4rpo4KZx66tTp47td6I9U0R1oX2nY81dYFm2bJk555xz7LGYrOMDAAAABV+RCJ4rUP7GgOXmvSc32C4nD8tMt3vaDbJl1CsAAEBR5A/y+jsFOl0AVq11FeD0P1dCnfr91NrYBTgTnSeMWgu76fWsDz+12NbzHUTBUrUids8DcZ0/8J8IbWe0/OSqm6lTpx5zgUHPUYlGFwgU3PZfNFCAVwH03bt322GJctvoHhgejS5G6BkZudl+Jxn16VrVu30k2n4F/jUuKGx61XXlypW9viNiPY9FFwv8DzFXIN1ddEnG8QEAAIDCocilbQEAAEDBpwDy1q1bI2lD/J0/SOyXm3nUMlvBTT1s26UhUXqRaFyAXtME17FixYpsrbFzS8uPdoFBQfJEueCvgsR6HxZIDgaRE6HW03rwugLOLp2N/8JHTqSqPl1QPlXUwlwtzdXi3N0poAsJ6Tg+AAAAUHAQPAcAAEDauZbAYQHfaHI6j2sxrECnP7CpFCjRuEB0rGnySsvXRQAFzxOh7VCO9GCKFtWDlqV83WqhHyyz0ov4W+476g+b3lHAWOlyFChWGhdRWXPTsjoZ9an5ta0qj+OC2BoXFDa9u/CSKNWRWprr+Bk7dqy54IIL7MWZdBwfAAAAKDiKTPBcD+hxt03qttxU0B8WHgQEAACQdy7tiB5C6c8TrXMtBYoVMA7KzTziD3TqfC5WehQFTbUOTeM/p9R8ankcllc9VsvvMPXr1z/moaUuRUowQC4ukOvP667tdw861fiOHTuaGTNmRMqsV/VreJirr77ajg/WozvX9QefNY1a7jvB4Huw3y8Z9eny0Y8cOdK+invvxvmpfjW/m0Z1rLpeuXKl7U+UyqcyqJ5VX5Kb7QEAAEDhVWSC57rFVSf4etI/AADppsDM9ddf7/UBSIRaNevBiwqAukYQSsWhz5OClGFyMo/6H3vsMRvkdNOqJfG8efPMkiVLbDqOMMqlrdQw/tzq7uGcYalhtB4Ft5UHW0H8gwcPemPCaXqVVxQo1vJdihTX0jtIwzVe02l6bf+IESMiD/xUq3r1uzLrVf3R0ohoPo3316PonFrr0ni3rk6dOtlp1epfrdJFwWQFkF3AONjvl9f6VB299tprdj+7+bVPY82v+nXTa37Vg1Ll5ISWrbIHHyib0+1JtyeeeMLceOONXh+Qe3v27DGjRo3y+hJz2mmnmZdfftnUqFHDG4J00PfvTTfd5PUBQOo8/vjjpl27dl5f8VAiMzMzy3tvzZ4927Rq1crrK3i2bNkS9eFGalWiJ93rj4VOapNNJ8RqUZOTXJQAgNimT59uWrZs6fWFUyAEAAAA6aPgudJCKRB+zz33mN/97nfeGAAACp5od6HmVbHIea5bTfXQI9cyxH9br25NHTNmTGR88JZfBczdfGr9AgAAAABAcbF27VrTs2dPU7NmzRy3RAcAoLArFsFz3aaph0S5J+ErJ+Py5cu9sUdyJk6bNi2S19GNU+Bct/ZquObTw6YAAAAAAChuCKIDAIqjYhE8V95F5V90LciVD8z/QCflzVSAXWkBFFjXOLU+V+BcKWBIFwAAAAAAAEF0AEDxUiyC52pZrhzoruX5wIEDvTEAACTHqlWrzI4dO7w+AADyh1JWbtu2zesDUicsiH7o0CHzySefRO7qRnpoX+j5cACQal9++WWxO88o8g8MdcP0xP6uXbvak8lOnTrZ1ubqV85zLU/vxd+v96IHhOqJ/nqivgLvPDAUAJKnqDwwtGLFiuaCCy4wDRo08IYAAJB+L7/8sqldu7Zp2LChNwTInYMHD+aoZbkeLKr/4gMGDLD/nxs3buyNQapdeumlplGjRmb48OHeEABIDZ1jtG/f3gwaNMgbUnD4n2GZTEUieO4C5KNHj/aGHLFo0SIbRHeBb2nevLntTjvttLjBc6V70evbb79tevToYQ+OJUuWEDwHgCQqSsHzUqVKmUqVKnlDAABIv88++8xUqFDBVKlSxRsC5M5//vMfs3LlSq8vMe3atTMzZ84keJ5mBM8BpAvB88MKc8tzAEDhU1SC51WrVrUXcnVnEwAA+cXf+hfIiz179tgLMYno3r27uffee80JJ5xgj0GC5+lF8BxAuhTH4HmxyHkOAAAAAACSS0HzFStWmHHjxpmLL77YGwoAQNFB8BwAAAAAACTMHzSvU6eONxQAgKKH4DkAAAAAAIiLoDkAoLgheA4AAAAAAKIiaA4AKK4IngMAAAAAgGMQNAcAFHcEzwEAAAAAQDbly5cnaA4AKPaSFjzfu3evycjIMOPHjzdr1qzxhmY3f/58M3nyZLNlyxZvCAAAAAAAAAAABU9SgucKhs+dO9fUq1fPlCpVyhua3dKlS83BgwdN6dKlvSEAAAAAAAAAABRMSQmeV61a1XTs2NFUrlzZG5Kdgutff/21+cUvfuENAQAAAAAAAACg4Ep5zvNDhw6Z5cuXm4suusiULVvWGwoAQNHy1FNPmebNm3t9AADkjz//+c+mdevWXh+QXqeeeqp58cUXTY0aNbwhSId+/fqZLl26eH0AkDqPPvqoadu2rddXPKQ8eL5y5UpTqVIlU7NmTW8IAABFj/6wXHzxxV4fAAD541e/+pVNpwnkhxNPPNHcfvvt5rTTTvOGIB10waxhw4ZeHwCkTocOHYpdZpGUBs/1ENENGzaYVatW2QeJvvbaa3aYHhyqDgAAAAAAAACAgiilwfNy5crZXOjdu3e3nZr1a1jTpk1tBwAAAAAAAABAQZSU4Llak2dkZNiW5QcPHjSLFy82kydPtg8KBQAAAAAAAACgsCmRmZmZ5b23Zs+ebVq1auX1FTwKyFevXt3rAwAUdtOnTzctW7b0+sKVLl3ae1dwffnll6ZChQqmYsWK3hAAANJvzZo15uSTT7YPbgTS7dChQ2bt2rWmWrVqpkyZMt5QpNr69ettfVeuXNkbAgCpoe94Pd+iID7b4sCBA9675Er5A0MBACgOrrrqKvPyyy97fQAA5I/rr7/ejBw50usD0uurr74yF154oVmxYoU3BOnQuXNn8+c//9nrA4DUUYPrZ555xusrHgieAwAAAAAAAAAQQPAcAAAAAAAAAIAAgucAAAAAAAAAAAQQPAcAAAAAAAAAIIDg+WEHD2WaB166zXZ676z9dpVp/Uh9c+X95xwzrrAaOrOfuXlIU7Nn305vCPLLo48+aq677jqza9cub0jR9cUXX5guXbokZVv19OQ777zTdql6knIyaT+XKFHCdnqfH5JZ/wAAAAAAAMVF0oLne/fuNRkZGWb8+PFmzZo13tDsw103f/58b2z6zFj0ig0c50SNKrXNGwOWm8F3jPOGoDCaNGlStqClC76+//773hAgNXSMffPNNyYzM9NkZWWZhx56yBuTGgqOK0iuYDkAAAAAAADyJinB8y1btpi5c+eaevXqmVKlSnlDjzruuONM06ZNTffu3W2n9wVJqZJlzBO3vWQ7vS+o1BL+rhEd8tRq/J52g8yE++ab8mUrekOQXxRIfeutt8wpp5ziDUEiSpcubZ5//nnb6X1BtnHjRnP66acX+HICAICio3379qZu3bpeHwAAAPIiKcHzqlWrmo4dO5rKlSt7Q9JLwWQFlRVcDva71CvPvPGImbVkkk3Bok4t0eXDL/8RGZbTluma3s2rdbj1p4pawt9ybS9zy1PNcrQu/zaqC6agCY5Xv2gd/mB9sF/bP3fZqzYNjOZz6WDUaR3Pz/lLZJmuvh1/KguXfkOtZpXGxN8iXO/9qU1SkbLDrdeVRy3VHa1fZfWX11++sO2IR62C9Ycm2jxavlumOn95YtF0uZkv1jYG68a/L7T8YcOGRcb7x4l/O2vVqmX27Nnjjck+Tp0rq3+ZqpsxY8ZkG++vG5XXT9O4ca7z7yv/eH9ZVf/333+/mTVrVsz9khNuXd26dTP9+/e377Vs1yJcy9Y6XHn869M0Ko/bdnVu+2NRfVSsWNFMnTrV1rfmC+4T3fnjlumvm+B+TmR9AACgYHriiSfMjTfe6PUBAAAgL9KS8/ynn36yqVoUuJk8ebJtqZ4uLvVKr9YDzI0Nu5r3ntxgu/ZNfm3HX3reL22/xueEAsn7Du41bw/6zM6vdWhdqabyDv3tJHPPmK6RIHc8bhvVje09x5xQqpw35kjg/Nk3BprX+y+NjH921iMJB+cnv/u8eebOqXbeetUbmgUrZtvhW3ZvNhu2fmnrR8tcsHJ2JOiuwFz16tVtGgt1V1xxhZk5c6ZtgX3zzTebBQsW2OlE7zUsr62zXQBTXZkyZczo0aPtcAUs9Qdj+PDhtixKr7Fy5cpIkFM079VXX23HL1q0yEyYMMHOF2074jn//PPNihUr7LKCtFwFcVevXh1ZbteuXb2xsWk6N8/OnTvNwoULswVOY4m2jap3tY53y9W+UL9zzz332Bb0Gnf55ZdHxqn+evXqZaZNm2bHaXvKly8fOk5l1fpcMHfcuHF2mWq1vW3bNjNx4kSzfv16O07r0DwaFuTffm2DptH0omVrGW68lj9y5Eg7Tn744Qd798zixYvtMSDLly+3r7nhyqIyDBw40L7XPte+V7327t3bHi+uPGqdPmTIEG9uY+bNm2dOOOEEO051N3v27Lj7UtukuuzcuXPk+PHf2bBq1eHvrH377HD/PlYX7zMAAAAAAABQHKU8eF6uXDnbKt2lbKlZs6YN3CgXemF2SrlTzZotn5mOf26So1bgsmbxJtOz8qBI988pK7wxscc5CtKPu3eeDXrntLV80Ffb15s2DbtF0ricccrZpurhbvfeHbY/Hv+8SgnjLkqcWPpk85vr+9g0OKor2XV4mQrUKairFrkumK33Ljiq1q/KEa1AoTq91zAntyk7XADTBQd79Ohhh2/evNkGKl1LXQXWBw8ebIOQjqatX7++fa9grNYtsbYjt7RN+syoPDlt/etvla0WyEuWLMm2HbGEbaPKov3lbyEd3EbVqwtQ60KCG7ds2TLTpEkTGywOUpn84xTc1TIULBfdaqztV7Bd3x05paDvhx9+mO2igy7C+C+gaP06trR9ji4MaJvdMea2K9lccN5/XOvChb88tWvXjoxXPU2ZMiXPF5C0zJ49e9r3Oj6+//57W5ZEPgMAAAAAAADFUVpanvuphaVyoBd2Chgrd3jGg4vMC3MHZ0t3Ek/NRmebkVv7RbrGXY7mJIw1zlGwXqlb/tC6vw1YFzYnnnhitpbV6tRqVhQg1DGiFrOaRu/zGjSMp1mzZjaI6C9PIoHTWNuRF1qGliUKZgbTk4TRhQZNpwtTmleBTwVL88q1pHf1E9biuyBRPSjtiy7UBbm6cV1OL8AUZbn9DABIL11UjZZWShdQddEt3l0qhZHu3HHbHKsOcst/8dl1wbr0pzYrKPWsMiVyjpAM2l5tt7tLLD/ldrt1cb158+Z5urMqlcdiMsqXiIK0LwEAAAqDtAfPP//8c9uyVl0y/XDgu0hr6ZfnPW2+2pm9BfCZp1U3277bki3XdzK4h40q7YtacaeaAvRK2aLULUrHkleql9eXTIykVPl44zKbcqVm1Qts/w+Ze2yLcdWbLhKonvPCtaxWgDPanw21NlarbqWVCLY81jz6o5KsPytqgfvxxx8nlG7FL5HtyCu1nFZwXndpxFuHguUKeGp7RBcflKYjr9SS3D3wUn+2tE8SUa1aNfunTPOou/vuuyM5z1VGBbLdn0O9qr9Bgwa2Py+UGkopUYIXXNQqXn+0VZb8ppbd4lLcaN+qXpXGJa/BfC37pJNOylGr8dx+BnCsJ5980l6IAJA8ClC6O75SRXc+6Q4s/0VEf9orlUG/ae63VhcX+/btm7Lff6SG7uR6++23Q++KS0Q6jkWgKDj11FNtisxzzz3XG4J0ePDBB02nTp28PgBInUceecS0adPG6ysekhI8V3AvIyPDvPbaa+bgwYM2b7DLbe7GKailTpo2bWpfk0WtwJU+pM+Lt9gW4KeeVNk0qHmFN/aIi6sdCcw173dhtgdY6lX9/geKulQoClSrX8tdsvrvdl73sE03znXqv+HSnKeYyAm1OB/3t2dsypZk5VdXAF5112bgJXY7Bk35PzOg67O2TrWOeuc2MrcPa2G3/aqLW5iqFc7y5sy9++67z74q0Odacflbv5x11tF1+N+ngv4YK9ez0lTktEVZvO2IRtNoWqUO0Yml5ncXA7Rerd8tTydAt99+e9ygqv4Ianku9YZyVicjiKeLFzNmzLDLvOaaa0y7du28MbEpsKBOgVnNp9b0CqiLyqoUKq6selV/In9m9cdV8yh9jEvD4lqfaZxysLvlqtMw0YUIV57guHTTvnzsscdswFzl0P7XBQp/mpnc0rKVfkbHgpadyLGcl88AstNxWadOHa8PQGHhv1AcpO9CfV/rd8wF05UCSwH3vDwbAwCKKt2d+9vf/tZUqlTJG4J0aNu2rWncuLHXBwCpozhRMho/FiqZmZlZ/i4jIyPrwIEDBbZbt25dFnLvgy/ey7p/7K1ZB37c7w0peHQc9ujRI2vixIneEABFmX53gr9FwQ5Alv1d1O9j2Gdi0aJFWc2bN8/auXOn7dc0mvbwqZ7t/OP02rlz56zRo0dnGxdrnjCrV6/OqlOnTmR6dQMHDvTGZtn3Q4cOtcvROJXRDXfTa34tJ4y2Nzidq4M+ffpExgXrJFguf5mC3DZHO+fQspo1a3ZMGbXMaPOEbXewTMFy6b3r3PjgdgXHqQ78y4i13W473D5X5/avf7n+efw0nabX/P51uH0a7ZgS//LdfvTLyfjgdgeP2bD5HVcHenXb8/rrr0f2k7po+zQdx6Irn38f5aS+ou0Dt61uHndsun0HAABQVOg8LBVd2tO2IH8t+nSeqXRyVZtupqBSSy616FLrVwAAkDNqLa0WaEoHdfgc0na6K0V3uLi7SpRKS7+3h08GI2mk4s3jp2FKyTVixIjI9IsWLbJ3Bfnvwho3bpy9u0Xj9WBq3Wklbh7Nr7uswvI8a90TJ060KVV0V6O7Q2n06NH2Lg/Nr/LLkCFD7KvWreVNmzYtMl4PZI6WI1vjdc7hfwC4/+6bnTt32mEuLZpfrIeE+7dbd0QlUlfq1wOkNV7rVblcSi3dLaVpNVzjtZ90x5CjcVqPW4em0zD/dm/bti2yz9XpjjBtl1vn6tWr7d1m/jIFqTzvvPNOZBvuuuuuyL4LHlPuzjrR9Or8+/vAgSOp+KKNl3jbrf2uuwbc/H369MlRSr1Ro0bZdWhebY+WnV/Hovj3kdseHTs6HhOpr7B9oBRDuvvOlUHTKn0NAAAAEkPwvBhQGhqXXkZ533u2/JM3pmDRyXzdunXtHzH94QzmrQYAoLhTsM6fLsx1StfkKAiqwKg/1Zbea5gLlIv/WQuJzuPoN1rDFZRzFLxt3ry513dEw4YNIynYNm/ebL7//nub9sTR/O3bt7cp/hKldbgL7Cq/tkNBSQUXFyxYYAOOLrip8XoWhgKjYUFRBWW3bt1qA6MuIBnrokGi/NudaF0pMKsLDKJ5NL0C9CpHMHWM9o2md7TdAwcOjKxD02l6BXD926FtU524evOvU4H0ypUr2/fR+MsQtu/8x1S8/R1vfLzt1v7WfvfTfsvJA8FVH27Z2ifafh0TiUrmsei4fSS6JVrHpMqU6OfHvw8USNdFGDePK4MC/gAAAEgMwfNi4J52g8x7T26wnR5uWlBbnevPxYoVK2zn/mgAQGGxdu1as3v3bq8PSA0FDl2rVH+ngJyjYFkwyK73GuanwLiT6DxBrjWsplfwNdii1Z9LXAHAqVOnZnv+hDq1uM4JlVtlC3LBVH8rcnUKiqpFbxh37qGgq+OCoWEXDRIVlkM9J3Xl51pdax5H02l6cduth2P7abvLly8fCQYr/7B/GTmlZQXn1zq1bj3zSPzHVLz9ncj4WNut9wo0a3rNpwYYsYLSYfzlzY1kHosSax/Fqy8n+LkOllHzx7tIAuTFTz/9ZC/I6nOA9NHnPdb3CwAkixp37Nixw+srHgieAwCQBL/85S/N2LFjvT4g/+iENlqQ3R8k9svpPGoVrCCzgnIKZmo6BfeCran99Mde411Q1N+pdXFeKVCjdfhbkbsuJxfmtU0uAKlAo+ZXmYOCwepoclNXyaB15OcFvXj7OxnHg1pea3odt2rtr+B0boLoyZasY9Ev1Z8fIFl0l0Tt2rXNRx995A1BOugBfo8//rjXBwCpc8MNN9hsEcUJwXMAAIAiREFdBdoUUExUTudRq0JRIM8F7vReKVCiUUBa4zVdKqglstYRKxd5kNKaKLDtT22iOlBdaFmula+/zJpW87kAezy5qSu/sDK4ls3iWmMHt1vTaz7NnwzKp+0vg2idWnepUqW8IUfF29/xxsfbbj/VgdK1uCD6smXLvDH5IzfHYjzx6iuM5gl+rjV/osceAAAAilDwXA/f0Qm2Ov2hSQU9UCjWQ34AAADym0s7MnLkSPsq7rki0c6RcjOPP5CngLIebLhy5UrbH0a5tRXY9D/Q0bXK1jlWmLDgXzT+NB7+MmvZwQC5o5bK4k/RojrQelVe5cPWMnX+5+b3j09UTuvKL6wMenCnP6WOHvrp325Np+nVMtvl9E4Gfxm0Lj1gVK0dw8Tb3/HGx9tuzaM0OBrvqMXrhg0bbK7wZEv1sRhPbj4/mkfldp9rzaf5Ez32AAAAUISC52rJo5NZ9xAhAACA4khBRwXTFLRzDQsUJB4xYoQNpobJ6TwapochahpNq1bC9957rz0P04MSwyigqMCdKIWJm09BxmjpZFxwW9P5g5DRqFzK/64HqLrt0EMnXTA2yG23pnHTq2Wzyqnyisqm5bqW0CrHY489FhkfT27qKkhlUD25MixcuNAu09E61MJdD11369CwZKfz0AM7r7nmGrsOrWvatGlRU5DE29+JHA+xtlvzaz8Ej1kFrFPx7JxUH4vxJFJfQW4eHdOaXvOpblKdMggAAKAoKZGZmZnlvbdmz55tWrVq5fUVPFu2bImaY1KtKfQEeZ1E6oQ12XSyq9svySsIAMkzffp007JlS68vnAIABV3VqlXtb5A/oBXLDz/8YIYOHWrOOOMMc8cdd3hDAQAACq9169aZGjVq2ItMjRs39oYi1S699FLTqFGjYpeHGED66bkW7du3N4MGDfKGFBzu7rxkKxY5z91tx67Vh27xdBWqWz3HjBkTGe8fJwqYu/n0xHwAAPJCQfOHH37YBs0feeQRbygAAAAAAChoikXwXLcn6sn27on0erDR8uXLvbFHclfqtlOXw9CNU+Bct4dquObTE/MBAMiNYNB879693hgAAAAAAFAQFYvguXuYjmtBrlyIeuCPo1vsFWBXWgAF1jVOrc8VOFcKmMKQLgAAUDARNAcAAAAAoHAqFsFztSxXDnTX8nzgwIHeGAAAUoOgOQAAAAAAhVuRD56rBbmeMO8eMqr85zNmzLDvY3Gt0BcsWGD79cATcp4DAOIhaA4AAAAAQNFQIjMzM8t7b82ePdu0atXK6yt4tmzZEgmEOwqQ9+7d24wePdobcsSiRYtsi3MFvps0aWKHNW/e3HannXaa6dq1q31gqJan9+LvV7oXvb799tumR48e9mmyS5YsMQ899JCdFgCQd9OnTzctW7b0+sIVhvRZlStXNhdffLH9nchJwFxpw44//niv74jGjRubUaNGeX3ZtW7d2mzatMnrO+rqq682w4YN8/qy08XfTz75xOs7qkGDBmbs2LFeX3Z33XWX/R0NOu+88+w+C/Pggw+aOXPmeH1HqW70Wxrmz3/+s5k6darXd5T2ueoyzIgRI+zDvsMsW7bMHHfccV7fUXpuyeDBg72+7HSh/JRTTvH6jnrjjTei/ua//vrr5pxzzvH6jnr33XfN3Xff7fVlN27cOPuA8iA9a+XWW2/1+rJ79tlnzS9/+Uuv76h169aZdu3aeX3ZPfbYY6GfqR07dpimTZt6fdk98MAD5qabbvL6jvrxxx/NpZde6vVlp4es/+53v/P6stM8mjdI69C6wlx77bVm+/btXt9R2hZtUxidm61du9brO0p1proLo7r2P/vGqVOnjhk/frzXl532qfZtkI4BHQthlCZw1qxZXt9ROtZc44ygIUOGmAkTJnh9R+mY1rEdRp8FfSbCLF682JQpU8brO0qfOX32wuizqs9s0Ny5c80f//hHry87fSfouyFI5+A9e/b0+rLTd4++g4L0XRWtwcrQoUPNNddc4/Udpe9EfTeG0cXMtm3ben1Hfffdd+bKK6/0+rK75557zC233OL1HfXf//7X1KtXz+vL7o477jB/+MMfvL7s9H9k3759Xt9Rv/rVr0y/fv28vuyuv/56+78nSP9jnnzySa8vu86dO5tVq1aZQ4cOmZ///Oe2k0aNGpnnn3/evg/67W9/az744AOv76gLLrjATJkyxevL7r777jN/+9vfvL6jdNH4zTff9Pqy052/YQ2YTjzxRJsqM8zw4cPNSy+95PVlt3LlSu9ddi+//LJ5+umnvb7s/vGPf5iTTjrJ6ztK5Yp2Z7L+G5955ple31HaftVDmMmTJ5sLL7zQ6zvqww8/NL/5zW+8vuy0f7SfglavXm06derk9WX3xBNP2NSkQTpudPyE6du3r+nYsaPXd5SOTx2nYXRc6/gOU79+ffOf//zH6ztCx5/Krc+/zmeQHvrd1TGkzw0ApFLt2rXtOfigQYO8IQWH4sOpUCSC5wCAwquoBM+rVq1qgzf6nfrrX//qDY1P8yiA7qcgVLQ/qgqa7Ny50+s76qKLLjLdu3f3+rJ77rnnzObNm72+o/R7qgBoGAW2dLdWUJUqVewF6zAKGOgB3UEKVugPexgFHv/5z396fUeVLFky6gmZgnvvvPOO15edAoIuYOSn4Ey0/aIAebly5by+oxSszMjI8PqyU9BEF+KDPv/8c/PKK694fdkpiFitWjWv76gNGzZEvViiQK9OUIO2bdtmnnrqKa8vOwXQFNAI0l0R0epUx6FraOD3008/Rd13CnarC6N5NG+QgjM33nij15edyqYyBmlbtE1hVAeqi6BatWqZ2267zevLTnWtOg86++yz7UWjMNqn2rdBOgaiBdB07IQFvMuWLWsD62F0jIYFEnVMRwt267MQ7eKU6lSfpSB95qIF/f/0pz+Zk08+2es76qOPPooaTNV3gr4bgvQdEu0CnRqmnHvuuV7fUfqu0ndWGH3H6bsuSN+J0QLKHTp0CL0AtH//fnt3UJgbbrghNLCu9I/RLv7oAmZYIFO0vw8ePOj1HdWwYcOoF8G0v/fs2eP1HaWLPK7RT5CCZrrj9oUXXrDBWxe4rFmzZtSgrS6+hF2AUiC8V69eXl92usATdkG2QoUKUS+wKEAdFqTX73u0/aCLsWEXrSTa/tb0YRdxRRdSwi4mqVzR7kzW/g67uKrtD7vQJao31V+Q6jnahV/95oddgNL+jBYM1XGg4yFIx0207wtdSAoL0uv4jPa9pONax3cY1Y8+F366MKVjkOB5ehE8B5AuBM8PI3gOAEinohI8V4tVtTxXy2L9eVcLyUSC6PqDGS1QDgBATulCpgKxYS37gVTTRVAdg23atAm9iwWpoQtAqu9odxAAQLLoDkbFZaPdnZqfCJ57CJ4DQNFSVILnYRIJohM8BwAAAAAgb1IVPC/yDwwFACC/XHXVVTZv9t///vcCfWEaAAAAAAAci+A5AAApRhAdAAAAAIDCh+A5AABpQhAdAAAAAIDCg+A5AABJsGHDBrNnzx6vLzZ/EB0AgGTauHGj2bVrl9cHpNdPP/1k1qxZYw4ePOgNQTp89dVXZseOHV4fAKTOpk2bit15RtKC53v37jUZGRlm/Pjx9scyaOnSpXacuvnz53tDAQAoGi6//HLz4osven2JURCdh4UCAJKpadOm5rnnnvP6gPTavHmzOe+888zy5cu9IUiH9u3bm0GDBnl9AJA61113nRk2bJjXVzwkJXi+ZcsWM3fuXFOvXj1TqlQpb+hRCpZv27bNdO7c2XTv3t2e0AEAAAAAAAAAUFAlJXhetWpV07FjR1O5cmVvyFFqka5btq688kpTsmRJbygAAAAAAAAAAAVXynOeb9261b6+//77kbQtSuECAAAAAAAAAEBBlZYHhu7evduce+65NmVL27Ztzddff21TvQAAAAAAAAAAUBClJXheoUIFc/bZZ9v3xx9/vDnuuOPM/v37bT8AAAAAAAAAAAVNyoPnyoP+008/mZ07d9p+vao/LD86AAAAAAAAAAAFQVKC53ooaEZGhnnttdfsw0EXL15sJk+ebFOzlCtXzlx00UVm/vz5Nt/5u+++ay677DI7HAAAAAAAAACAgigpwXMFwjt27GhzmrvupptuMlWrVrXja9asGTocAAAAAAAAAICCKC05zwEAAAAAAAAAKEwIngMAAAAAAAAAEFAiMzMzy3tvzZ4927Rq1crrK3iUR/3EU8/x+gAAhd3f33rVtGzZ0usLV7p0ae9dwaWUZL179zZ9+vTxhgAAkH41atQwN998sxkwYIA3BEifdevW2WPw/fffN40bN/aGItUuvfRS06hRIzN8+HBvCACkRu3atU379u3NoEGDvCEFx4EDB7x3yfXzvn37Puy9t7788ktz/vnne30Fjx5OevwJ5b0+AEBht3Ht5+a8887z+sIdd9xx3ruCq0KFCvZPYpUqVbwhAACkn36PGjZsaE4//XRvCJA+P//5z80ZZ5xhLr/8clO2bFlvKFLt5JNPtgH0s88+2xsCAKnhzjP0XV/Q/Pvf//beJRctzwEA+aqotDwHAAAAAAD5I1Utz4tczvON21aZXz/1CzPnw1e8Icgva9d8Ya66vJ55NWOSNwT55aknHk36fnD799QTf2bu+7/fmYMp+JLavXuX+e1tN9l15QetV+tXOZA3Ov50HAIAAAAAABQWSQueK51KRkaGGT9+vFmzZo031JilS5faYf5u8uTJtgU5kCzBwJwCuQrofrjkfW9I0Zfuba5R83zz7vsfmTfnLfSG5L/CFKAlmAwAAAAAAFCwJSV4rkD43LlzTb169UypUqW8oUdccsklpnv37pGuadOm9vb7cuXKeVMkV7VKtc0r9/7LtLj0194QfL9/p/nTy7+yrfLTyQVXO3Ts6g0BAAAAAAAAgMIhKcHzqlWrmo4dO5rKlSt7Q6L7/PPPbVL5ZAbPf/wp0zw25XbT/tHqkW7F+n94Y48dr/caJmPmPJQtxYu/X8HmYTP/z8xY+FxkXjdOrxPeecL0GnWtHa5XBakdlz7GzefKo/n863dl85ch2U46oaL5bYuB5uGJ3bLVSzyqC227tkPv1QW3xW2fOv82qEWt0nmoC7aE1rjxL4+JmvLDtaBOZioQf4qRYJlUnrlvzjId215vx+nVn6bDvy2Jlknzu+UFl6myPPLQA7YO3Hh/SpVYZY1G859Z6QQz7qXR5oZmV9j5tAx/upOdO7ZHyhTcjtxsYzz+Zapz26F60DqeHzEsMs6//f66O7/aqebLL+Jf9HF19rs7bjZ/eWxA6HL95Qnu41hOP/1MM3vWjNBlBvezf1w08cqqelJZ/eX1151/ff7tcPM47nPk5o11XGm+aJ+B4Hz+dYi/nMFjR9vkxml7i7pNmzaZ7777zusDACB/7N+/3xw6dMjrA9Lrp59+MuvXrzcHDx70hiAdvvnmG7Nz59F4BACkyldffWV2797t9RUPac15rhbqSu9Sq1Ytb0hyHH9cGdO3y1gz46H1tmv+i6MtnRWcHvLqH0y9c6+IjD/1pKpm3N/+7E0R28oNC03p48va+Z767Ztm0WdvRoLkr/9ztLmt+UN23EVnNzTvfzbbDtf4SQuGmOF3vm3HvXTPh+bND8bZ4Zdf2NLsP/iD+Xb3JjutXtWv4amkFvkqz0tvP5qjQP17n84y/9d2mPnnqjnmjIrn2rrdsnO9HafW/a5OtY0frVsYqZt7H3jIfLVtv7nlth62P+ilF0eZF1+ZaqeRj1cut6954Q9EukCyKAj4/Iinzcy/zjc7fviv+WLjDpMxdWIkOCgvv/i8eX7sRDv+soaNzYL5b9nhCv6dfU51O1xdw8ZNzOy/zrTjYqlQ4RST8drcyHwdu3SLLFP+vmCeKXPCCXbc4n+tMvPeetOWJ5GyhlHrflffSqOiedXqX63/namTx5vHn3z6mDrP7TbGo2PALVPbOPfNNyKB1c2bNpq1a760ZQlu/523dzP3PdDPzqftP+/82naeWNxdDqNenGD+2PeRyHrdXQ8u4OuGa388PrBfQhcJtK92bN9m5/OXVfM+O+z/t3cv4FVVB9rHF1oZghdEqXJRhICAdiyIEO6iyADWpBXpgAjYqrQw0KKAUDvIRUBrBWFwBBWn8xS8VEgVnYlFnGprhULF+mFnREC5SCWCclMwyDWf73KtZJ/tPslJcs5JSP6/5znPOWtf19p7J4R3r7P2A/aYap7a8s7//s2GzSUpra6ia7lHz152us6nrgHtr6Tr6ns3DDQbN75bdK18+OF289lnn5qWrdrYaeX9GXjhuaXmgQcfLtqnzqtX0rWjeWv+vNIeF81Te6u7Ll26mMcff9yVAACoHKd/+Tdm7dq1XQlIr+3bt5sWLVqYt96q+P/vkLj+/fubGTMYEhJA6vXp08fMmTPHlWqGtIbnqeh1XpovjnzVwzsYTme1+Sfzyaf5Rb2/S9L4nMyidRVA33dLru3JLQqS22VeaT8rWP5w92b7eeuu9eat9/9gbp2TZXtk6/29/HVm38FP7Lrdv3WdWf/BX+yyelfZb7MkBfsKzMLv/9pMufhe+/rtuBfM0S+OljrP0z5mDX/BhtzB3u8l6fdlG88+/Zsxx8FTD3Tf6zzYxkT85PY7bYhYJyPDNGrU+Ms/sra5OcZOm/1vj9iXPicqGET6IFne37TBBunqxaxgXe9vrl1j9u4pvjOvEFLBpCgcVJCpsFLhn3rMBnvPfrD1q5sHJdG66oUbbz0Fwr1697OfdRwW/ufTdv+J1LW8oo55RdpYmmCv4y5XXGLe+b+/mYJDX11zZ9evb0aOvsPW5Zxzv7r21Ua1v+lFzcy327a305JBbTx48KANl712l3ewwbKvT0l0rm750Sj7+YILmtqe6KqrwmkF62qb2qgbNg/Pm5WUc6Vr1x+DrM7din4WSrqudG5bf1lXHUNZ9//eNH36XZfwdRX1MyAKx/VthnCP85KuHT9v4I1Dy/QzDAAAAAAAUJWkLTzXQ0TVrT/Zvc6rKgXrvle2XhqHXeG7XHpRJ9uDfdf+7Wbjh+tsORF169c1P/7tD8309ybZ1/fnfM+cVue0Uud56hU+4T++Z3vhq6e+euyXl7alXuyTh/y6qOe5AvaqKhis6xXulR3PmWeeZXsbB9cN9ryNx/e+LU+v2/LWtbzK28aSqPf10qefKNqu3hWYVzdX9+pTdI79S2F3qpR2Xam3+uuvvWrDa/WC100Cr7zXlUJ0La9tKyAPDs2SimsHAAAAAACgqkhLeK4x9zZu3GiaN2+e1l7nUqf2VwGxH1JFva01hIoCZB8e+x7j6km94q+lj1lcGvXU1jAn8cYXV4je7Pw25oU/P25Or3NmUaieShqD/fZH+9phZpLxMFXbw7yw0LZVdHzz91a8t7L43rXh8ZPLSz2b//u/nosZ4zkR6jF7xhln2OEuyloP9b5V725tQ0NjLP3Nk25OycpbV9G+wr34S1ORNpbE9miuVauoV7mG/ti/b5/9XBItv33bVturW/XR0CqJjHnuNW3azHz0UX5MW3wbVQdPn9VL2/e0TpSGujlw4DPbA111VW/68g5xE1XX0pR2Xfne6qrn+Q0bFoXjFbmuPN0U0HAvoh77JV07/lpUkC/ar3qlA0BVp6+81/ry3y//GjlypDmUxH8fw7Rt7eOpp6L//tyzZ4/p16+fWbWq/L+/axL9f6Nv3772PVV0jZQ0NMKmTZvseQMAAED1kJTwXOOYL1261Cxbtsw+GGT16tXm6aeftmOcix6iVlBQUCm9zhWQ/+S7vzQv/fUpO7zITff/ox3z3AfIfa64yQbdmqdQ/aarxtnpFaEwXOOEz3jqh0XDmoSHSdHQMQrq9Z5q6iW+8HdTzLShTxYNM1NRauM/Nutixi+8zrZPPejbNu9h5ylIU/AdfoBlRYK7ilCAqDGbfT3CvWdLMnrMnfZdbfHrJtIODRGisFLL35DT22R/t7+bU7KK1FW034fnzbbrhR8YGk9526hltKzqqvOs9X1dFeJq+BU/TMjpZ5xhy6VR+wfeNMwOhaLtZX/vBtu7O1E+PPZt0dAxojYqqPbt02ff7tIovPftmP3LmeZfp8y04bCCd4137o+3XsEHbZYmXl1LUtp1pXppmJWJ439ievf5jpta/uvK/yz7dXQcNBSLv+lQ0rWjoW7+subPdprGV899YYWdDgBVkcLWdu3a2c+FhYVFryZNmthxZAlDkQjd5BgzZowrAQAAoDqoVVBQUOg+W3l5eSYnJ8eVqh4F8md9s7krfZ1/QOh1nX6QtKA4FdQrXcOezLj5NwmNdw4A1dUfXvqtyc4u+aHJGRlVf+z0xo0bm7Fjx5oJEya4KQBOBur9rZ9dBeWTJ8cOPVXSvGTw2+/Ro4cZMqT4wdGeQntN1767dUvdsGDVhW6CKLx+6KGHTOvWqRnyzvc6j7oeFJ5rvr5JcO65Zft2G1BdbN682bRs2dL+PHTt2tVNRaplZWXZh9fPmzfPTQGA1LjkkkvMgAEDzMyZM92UqiNV3xhN6wND0+GjvR+YXfs+KBpOpCryQ8foYZwE5wAAAJVn+/btZuvWrWbgwOIHS3u6cffoo4/GBKXhoV3UY90PE6LQVMOwLFy4sGi+hl2paM/1d955x+7HbzM4jIvvNe/n6eUDXi0X3n94qJjw+iUNSSJaL7iv8JAz2me8+dr2xIkT7f6D84N1CB5PKWv9gko6NqLP/uXnq27B/3iF5+kbt1HU7u7du5sVK1aYBg0aFJ2jstZf50rnzC8fPH9ad+7cuUXz/T6CdQwfv5K256+FeOsCAACgmoTnGs/7hw9eYYcP0TAit/abkpZxxMtj4e8mf23oGAAAAFSO3bt32+BQgWdpFPTu2LHDDkeoYV303rlzZxto+sD1scceM6effnrR/GbNmpkFCxbYeeX13HPPmVdeecVuc+XKlWb06NE25FQIevvtt5v58+cXDTWj+VOmTLHBqh8y8aWXXrLv4m8WdOjQwS4zaNAgs2TJkqL6qn3xAl4t/8QTT9hjpuU3bNhgFi9eXBS46viobpru58+aNSsmQFd52LBhRXUdOnSoPX4a9lHT1JPJH8+y1i+otGPjqdyrVy87X+3atm2bPd6iemtZ3159Q0D1j6JvBmj7GnNdy6usdXUOfB00XdPi1V911jcNtK6vsz5PmjSp6PpatGiR7Vmqee3bt7fhd/Ca1LefdMx0TrSO1vXH22/PX4+zZ8+236rw87Ru8FoGAADAl778Q6sw+Fq6dGnhl38wVdnX5s2bv/zbDgBQXejfnfC/ReHXyaBRo0aFDzzwgCsBOFmsXLmycMSIEeX+XfPkk08Wra/Pffv2Ldy9e7ebGzs/TNM0T8tE0Xa0veB8P031jhKeH95/sDx9+vSv7XvDhg2Fffr0se9hWjbcPi9eW8L7C9Ylqi0VqV9J8yS8v3B9RNP0iqqbb6PmR9GywePjtxUUXiaopHmibQXrG9VeX0cdN9+G8DGU0toClNf777+vYWELV61a5aYgHTp27Fg4ZswYVwKA1GnTpk3hpEmTXKlq0d83qXhVu2FbAAAAgLJQb+Mv/zB2pdKp97Af6kI9p4PU07xu3bqulBzaZkkOHSoefkM96DV0iKce5upprh7nWu7111+3PahFPZZVf98WvdRTeteuXXZ+mIb8EO1DywZ7lOv46TiG66r9f/rpp0XHVz2dE3mOhepa1vpFKenYSLz67Ha9zYPfSNByWj4Rvv6ZmZluyldU//r169vth/njV9L1E6yvtuHb5Wmezu+WLVvsuOvqde6PYXDIFi2neep5r3kM2QIAABCN8BwAAAA1loJHhaRRYaYoKFf4qjBUYbGCxuDQJE8++aRbMv0UhCoQVdjqh99QO/r27euWMKZp06amefPm5s0337QBuoJsrePDbtVf6wVf69ati3zgpsJYDQGjZbSeD2WDIXqY6rNv3z5XSpyOd1nrF5TIsakMqsPevXtdKTUUnHsaBsa3XXS9+xDdDw+ja0HDDynYJ0QHAACIRXgOAACAGkshrB70uHTpUjelmAJcjfHtexur17bC3GB4Gwwq000BvigY9Q811eedO3faz+J7Iqvuv/rVr8yll15qQ3CFyurlXN76+1BWx0PbVoiu7SnwDkqkN3UU1bsi9Uvk2JREIbPa5ENn8b3JE6H667oJ11/b03aDvcU9f/wS/RZE1I2feD3e/Y0Pv6w/PqK66sG4PkTXjRYAAAB8JWnhuZ48r/906KFB7733npv6lbVr19rp/qUyAADViR4Ap4fOATj5DBw40Dz77LNfe5CjHqioMHPUqFFuSmxYrh7XGvaiMikM9oGoehPrIZlvv/22LXvqaax26GGX/vdUcNgO9a731CbfMzksPE9BrR8G5pxzzil6oKbvuax3lTVd+yuL8tQvLJFjE48f8kTXhN+XHiSqB8LGEw6zdayD9dd2tD31+Nb2w9TzW4IPeNW68drrv1UQfMin6rhmzRo7XI7W0brBbwb40FxBvb5REbzmgw+TBcpLPwd6qK2uTaTP+PHjzQ033OBKAJA6//qv/2quu+46V6oZkhKe5+fnm+XLl5vLL7/c1KlTx039iubpD7cbb7zR3HzzzaZ///52nEKF7QAAVBe33XabueKKK1wJwMlEvchXr15te+yqV7B/qbxs2TIbdCrMvffee22Y6ecrOH755ZdtWKngMd0Uwk6YMMGGrqqPQisFKCNGjDCvvvqqW+qrIFjLasgSH9CKpq1cudL2vPdtUk97ha1R4a56m2sd7UfL+iFRNN3Pnz9/flF99K76+fllVdb6BSV6bEqieitA9+3V+dY24/FhtvapOqoOCqs1zI+vg6b5nvBhapPWUxt9exVux2uv7zGuc6BzoeV1s2LJkiX2mtY6CjE1zW9PddE0rRO+nlVvhf2lDYkDlKRevXpmzJgxplGjRm4Kymrz5s3uU+IGDRpkevbs6UoAkDr626hLly6uVDPUKigo0NOwi+Tl5ZmcnBxXKhsF4j5Ev/jii2Om6Q/Jjh072l7nCs/79OljateubZcpC4Xx4a8hAgBOXrm5uSY7O9uVopW1xyIAAABwMtI3Rlq0aGHGjRtn3wEAifHfxEu2lI95fuaZZ5rrr7/eBuYaskUPKVJIUp7gHAAAAAAAoDpbsGCBadmypf22SHl6ogMAkifl4bl6nj///PPm/PPPt0O3fPHFF7Z3+5EjR9wSAAAAAAAACCJEB4DKl/LwXA/q0Rh8bdu2tb3NNQ7X0aNHY54KDwDAye7vf/+7/XYVAABATXXs2DH7gOLDhw+7KUiG0kL0jz76yOzdu9eVACB19Eyg/fv3u1LNkPLwXAoKCor+8VRPdIXnAABUJ506dTILFy50JQAAgJrngw8+sM87++tf/+qmIJnihejf+973zD333ONKAJA6vXv3NrNnz3almiEpDwz1DwXVkCzeN77xDXPVVVeZxo0b24eEvvvuu26OsU9l9Q8ULSseGAoA1Ut1eWBow4YNzciRI+1/ZgAAAGoi9TrPysoyL774ounYsaObirIYNGiQ+cMf/uBKJRs1apR9sOjgwYNtzjJv3jw3BwBS45JLLjEDBgwwM2fOdFOqjlQ9MDQp4Xk6EZ4DQPVSXcLzBg0amD179rgSAAAAUHZt2rQxGzZscKXEnHfeefYZc4TnAFKN8PxLhOcAgHSqTuH59ddfb77//e+7KQAApN+tt95qrrnmGjNkyBA3BUgfjb2ta/DBBx80l156qZuKsrj77rsTHvamR48etuf5fffdR89zAGlBeP4lwnMAQDpVl/Bcw5SNHTvWTJgwwU0BACD9NB7ysGHDzNSpU90UIH00DreuwVWrVpmuXbu6qSiLfv36mRUrVrhSNB+aq+OGaKgcwnMA6VATw/O0PDAUAAAAAAAA5afQfNmyZeZPf/pTUXAOAEgtwnMAAAAAAIAqitAcACoP4TkAAAAAAEAV0717d0JzAKhkhOcAAAAAAABVhELz5557zrz++uuE5gBQyZIWnh84cMAsXbrULF682Lz33ntu6lfWrl1rp+ulZbQsAAAAAAAAio0YMcKG5v3793dTAACVKSnheX5+vlm+fLm5/PLLTZ06ddzUryhI37p1q/3Ff/PNN9tlXnvtNXPkyBG3BAAAAAAAAAjNAaBqSUp43rhxYzNw4EDTsGFDN6XY/v37TfPmzc2ZZ55py36Zw4cP23cAAAAAAAAAAKqalI95fvbZZ5tdu3YV9TTfsGGD+eyzzxi6BQBQrdxzzz3m6quvdiUAACrHpEmTTN++fV0JSK8GDRqYOXPm2A50SJ+xY8fSYx1AWtx1113mO9/5jivVDLUKCgoK3WcrLy/P5OTkuFLZKBD3w7dcfPHFbqoxv//97+3QLnLRRRfZ5Xr27FnUG70stJ3MzExXAgCc7HJzc012drYrRcvIyHCfAAAAAAAAYh06dMh9Sq6U9zyX3r172/HO9VKo/o1vfMP8wz/8g5sLAAAAAAAAAEDVkpbw3FOP85UrV5oWLVqY2rVru6kAAAAAAAAAAFQtSQnPFYovXbrULFu2zHzxxRdm9erV5umnn7ZDrPh5ixcvNv/93/9tunfvHjOkCwAAAAAAAAAAVU1SxzxPB8Y8B4DqpbqMea5/n/Qsj/I8zwMAgGT56KOPzOmnn27OOussNwVIn2PHjtlr8LzzzmOo1jTatWuX/XZ//fr13RQASI2dO3fa/5/Xq1fPTak6TuoxzwEAqO46dOhgHn30UVcCAKBy9OjRw8ydO9eVgPT64IMPTNOmTc1f//pXNwXpoA6Q06ZNcyUASJ2rr77azJo1y5VqBsJzAAAAAAAAAABCCM8BAAAAAAAAAAghPAcAAAAAAAAAIITwHAAAAAAAAACAEMJzAAAAAAAAAABCCM8BAAAAAAAAAAghPAcAAAAAAAAAIITwHAAAAAAAAACAEMJzAAAAAAAAAABCCM8BAAAAAAAAAAghPAcAAAAAAAAAIOTUSZMmTXOfrU2bNpnWrVu7UtVz4MABU79+fVcCAJzs1q9fb1q1auVK0U477TT3qeo6/fTTTdeuXU2TJk3cFAAA0k//HnXq1MlceOGFbgqQPqeccor55je/aXr06GHOPPNMNxWpVrduXdOhQwfTvHlzNwUAUkN/Z3Tu3Nk0bdrUTak6jh075j4lFz3PAQBIgpEjR5qOHTu6EgAAleO2226zN3OBynD22Web8ePHm8aNG7spSIchQ4aYXr16uVLqzJgxw9SqVavopb9/Dx065OYmn7atfTz11FNuSqyNGzeavn372nfEt2fPHtOvXz+zatUqNyW5dH5SfS2E+WtR7VL7kkGdif22SmtTRa491V2vVEn1+b7llltMt27dXKlmIDwHAAAAAABAJAWE7dq1s58LCwuLXvrGZf/+/ZMWXuLkpJs3jz76qMnIyHBTUkvX48qVK82GDRvMSy+9ZM4991w3p/wUNI8ZM8aVSqcRO1asWFGlR+5A8hCeAwAAAAAA4GvU83bu3LlmwIABZvLkyW7qV+68807TrFkzs2DBAjcFSL3du3fbXucNGjRwU4DUIjwHAAAAAADA12zfvt1s3brVDBw40E0ppp7G6nHsQ3U/zEpwaJfgsBp+KIyFCxdGzi+v1157rWh76iEfHErD95r38/XyQ2ZEDZ+h5YPDcYTXL224DfVgDu5Lr5KGnRk8eLC9OaHl/DAhJW3DD8nxwgsv2PfwfPHL+HmLFy92c4qF9xFcX22cOHFizLnU/OCxCB5nzfN112e/TvAVPG6l7VvHw9dfywZp2e7du9te3wrP/bolbVOfg+0JzhOtG9xmcJ9Tp04t2qZvo6jtweskvP/SrpMgLRtcN3hs/X50voPXYbCOiZxvVAzhOQAASbBz505z8OBBVwIAoHLs2rXLHDhwwJWA9NLD2vLz882RI0fcFKTDJ598Yj799FNXSq6y9PKdPXu2HcrFD+uidSXYM/2xxx6zDxzU/IKCggr3XNfvvLfeestuS9ucMGGCuf32222gqJc+z58/v6hOGu5jypQpNnzUOPHPPvtsUVApb775pn3wqh6GqGUGDRpklixZUlTfHTt2xA1GtZ3p06fb4UT8/p588kkza9asmH0Evfvuu/b/EFpWNyJ0syKRbTzyyCM2BNZ8tcnPV7g7adIkOya15qnOmq5g2NN6o0ePLtqH3rV+MFRWediwYUXbHzp0qA21V69ebafpmwgq+zDZ0xAumu9fWrdt27ZFN1+0Dx0/XRuar/cnnngiZt+LFi0y8+bNs/PDY2tr+9qmAmWtq3JZ26N1grSP4Db9PnWtqu5aR8dRdI2Hhc+7tqFrJxhwx6M66pry16/e9TDO4LHVNb58+fKiY6/rQcdQ13ci5zvZPv74Y/PZZ5+5Us1AeA4AQBK0b9/e/hELAEBl0n+g58yZ40pAen3wwQc2PFUAifS57rrrbCCcKgq469at60rxqQd6cGgXjUUdDj8VUKqXrKjneo8ePWx4GA5hy0KhqB9vu0OHDkUBpvavMbGDdWjTpo2tg+jvdwWV/npVHV5//XVbJ23v1VdftWG8H9da08aOHWuD1mCQ7UWNg636nH/++a4ULfiw10S3oTb7sb7VpoYNG9o260bCtm3bzKhRo+w8X2eFwOLbGGyX3lXWdH8eRowYYY+P+GMWPM6ZmZn2vSQ6Rgq1dfNC+/D71jXi6653lRWgKwwWnRPdvEhEou1R/dWOskj0WtVxV8DtRV138YTHi/f7CYt3jZd2vlOhZ8+e5oEHHnClmoHwHAAAAAAAAJEUzvmet4lQb1o/hEQ41E80iE+UQuXSesUr7PRDdmhZ3yvXB5U+ZPVD1CicVFlBqXpc+7bopQA2GJRGCQ6jUdry8epf2jZ0HKPoXIWPsbavcF10Hv0yQWqzvr3gz7Nugvmwtjx8r3+F2D5E9vvWECnBY6pyUFn2nWh7ynPdJbqOvwmj86T2lGXIFk+91P3x0DUXVNI1Xtr5RnIQngMAAAAAAOBrFMT5Xq5RFPr5saD92M3qRazltZ6Gs6gsPoBWsOiHk1G9fM9zUciqwFzBuXqgK8hVz2UfymqIDK0XfK1bt66ol3OQelprXGodMz9EiIbyKK3neVAytlEeOi779u1zpYrRteCHEgkOkaJ9aKhL9dwPHk+91FPb90ZPhmS2pzQK+tV7XO1Q23TDKNEQ3d9oCg47o2sOVQvhOQAAAAAAAL5GIbEC5aVLl7opxRSSKihXMK2wWUG6wkMfhPre25VFYaQoSPXDyfgA19PwIBrj/He/+51tix9CRYG7evRu2bLFlhOh8F09kHUsfGis/ZXWUz2oottQnRX6+x7XEmyzb5eWCYrqwVxeflzwO++80757vkd0eN8VkY72lIVuGPgQXT8PfiiaKPr50LceFJYHb8iU5Zor7XwjOQjPAQAAAAAAEEkPe9SDNcM9aRWSKrjz4y1LMMTUfD10sTIpRFSYKH4okbffftuWRb2G1cN73LhxtqyhN8RP9w8X9dRTWL3Z44WiwSDTj/ldVhXZhoYQUaDqH8KqgFYPn/RtVrs0VI1/wKjoXWU/1ntF6PjoWtG42+Ft6YaKjmlw36Lryn97oayS1Z7SvmFREl0f+rZAsE0aL19BeiK96YNhuY5fWZ5fUNr5RnIQngMAAAAAACCSesSuXr3a9iL34zLrpfKyZctsQKjXvHnzbGjp54t61ZbWAzdVFF5qzG0/FrUC0vHjx9uHYSrc9DRfQ7mEw06V1YM4OEa3eqcr4IwKRdVTXOtoP1p20KBB9mGZ6m2d6EN0K7oNhcUKT/25Us9rnb/gUDXah7bpj4vedZx8T/fy2rt3rz0+Cm79tv3Lh+PaR/Cc6KW6qs7lDe6T0R7/DQStq/NbFuHrzLcp3PM+TO2999577c+HX0890V9++WWzZs0aO5RQaRI53yX5zW9+4z6hJLUKCgoK3WcrLy/P5OTkuFLVk5+fn9BTfQEAJ4fc3FyTnZ3tStHK+4dUOjVu3Nj2sNAfTgAAVJaWLVvann1Tp051U4D02bx5s70GFQZ17drVTUWqZWVlmS5dutjwGgASpd/TR48etd+8GDx4sJtasksuucQMGDDAzJw5002pOsrz7YVE0PMcAAAAAAAAAGoYfaPhpptuMh07dqQnehyE5wAAAAAAAABQQxGix0d4DgAAAAAAAAA1XDBEf+aZZ9zUmo3wHAAAAAAAAABgKUTXOOh6pkJND9F5YCgAoFLxwFAAAJKHB4aiMvHA0MrRrl0706hRI/ODH/zATQGA0k2ZMsW89957rlQy9UTXg0XvueeeGvfAUMJzAEClqi7h+YIFC0yHDh3snXkAACrLwoULzbe+9S3TrVs3NwVIn/3799trcMiQIaZJkyZuKlJt3rx55o477nAlAEhMixYt7E3PRJ1xxhnm6quvth3GevTo4aZWHYTnDuE5AFQv1SU8BwAAACrD0aNH3ScASNyVV15p1qxZ40rxKTRXr3O96tWr56ZWPYTnDuE5AFQvhOcAAAAAAKSXhtdavXq1K33dyRKae6kKz3lgKAAAAAAAAADAhuYaD/3DDz+0Y5yfDMF5KhGeAwAAAAAAAEANRmgejfAcAIAk+OSTT8znn3/uSgAAVI7du3ebgwcPuhKQXsePHzc7d+5kDO4027Nnjzlw4IArAUDZlCU0r4l/ZxCeAwCQBG3btjULFixwJQAAKkfnzp3Ngw8+6EpAem3bts00atTIrF271k1BOlx77bXm7rvvdiUASFxZe5r36NHD3H///a5UMxCeAwAAAAAAAEANsnz5coZnSQDhOQAAAAAAAADUIITmiSE8BwAAAAAAAAAghPAcAAAAAAAAAIAQwnMAAAAAAAAAAEIIzwEAAAAAAAAACCE8BwAAAAAAAAAghPAcAAAAAAAAAIAQwnMAAAAAAAAAAEIIzwEAAAAAAAAACCE8BwAAAAAAAAAg5NRJkyZNc5+tTZs2mdatW7tS1XPgwAFTv359VwIAnOzWr19vWrVq5UrRTjvtNPep6qpdu7bp0qWLueCCC9wUAADST/8ede7c2TRt2tRNAdLnlFNOMfXq1TM9e/Y0Z511lpuKVNPfyh06dDAtWrRwUwAgNfR3RqdOncxFF13kplQdx44dc5+Sq1ZBQUGh+2zl5eWZnJwcV6p68vPzTWZmpisBAE52ubm5Jjs725WiZWRkuE8AAAAAAACxDh065D4lF8O2AAAAAAAAAAAQQngOAAAAAAAAAEAI4TkAAAAAAAAAACGE5wAAJMGePXtMQUGBKwEAUDn27t3Lv0eoNMePHzeffPKJOXr0qJuCdNi3b585ePCgKwFA6ujvjM8//9yVagbCcwAAkuCyyy4z8+fPdyUAACpHVlaWmTVrlisB6bVt2zZz3nnnmbVr17opSIe+ffuaSZMmuRIApE63bt3ML37xC1eqGQjPAQAAAAAAAAAIITwHAAAAAAAAACCE8BwAAAAAAAAAgBDCcwAAAAAAAAAAQgjPAQAAAAAAUCGHDh0yI0eONE899ZSbEmvGjBn2lS579uwx/fr1M6tWrXJTTn6pbpPOnc6hzmVl0TVSq1Yt2061Nxk2bdpUtK1ktzEd11lVOC81GeE5AAAAAAAAqpVzzz3XvPTSS6Zbt25uCkozZMgQ8+ijj5qMjAw3Jb02btxoVq5caTZs2GDPnc5hRSnUHjNmjCsBZUd4DgAAAAAAAKBS7d692/Y6b9CggZsCVD7CcwAAAAAAAKSVH+ZFYWl4mA71QB48eLCZO3euneeHrChpnbDwcBq+nMi64ocP8a927drZekWJV1/tO7gNvfywNlqnb9++5oUXXrDb9vODw3+E67x48WI3p1h4H8Fhc9SGiRMnxhwzzde+/T6D7QoOD6LPfp3gKzj0TvAYhY+P5ul4+PoH2xVF++vevbtZsWKFDc99O0pqnz4H2xecJ1o3uM1gHaZOnVq0Td9mryzXWVh43fD6Oi7+5eeH9692BNf9+OOP3RxUBsJzAAAAAAAApI2CxP79+5sePXqYwsJC+xo2bJgdNsSHjO+++645ePCgnaehRAoKCkpdJx4Fk5MmTbLL+3U1nMuCBQvcErEUXu7YscPuU8vqvXPnzjYMDoacQeH6bt++3UyfPt0OQeL3+eSTT5pZs2YVhcy7du0yy5cvN6tXry6ar1BV7fF1Vj19HbSegmBP9Rw9enTRPvSu7QdDZJV9uzUkytChQ207/D4HDBgQ2S4dV833L63btm1bM3DgQLusAl/x8+fPn28GDRoUE6AvWrTIzJs3z84vbfgc7U/70A0F9UBXuazt0zpB2mdwm74Ojz32mG2L1tFxldmzZ9v3RK7Nkmg7TZo0KVpX+5XgtTZlyhTTq1evovnbtm0zzz33nJ2ngF9t8m2ePHmyGTdunJ2HykF4DgAAAAAAgKRQOOt7zQZfCgw9BYPNmjUzN9xwg5ti7GdN01jXngJGL9F1oiggVUAZpFBSrygKSoNjf+tdYWppgvVt3bq1Dbr17nXo0MGcf/75rvQVBbN+P5rvA9W33nrL1nnUqFF2npYZO3asDX1FAfbrr79uJkyYULQPvaus6T4MHzFihGnfvr393KZNGxskB/eZmZlp30uiQFwhtgJy7UM3Bj799NOiuomCaQXxS5cudVOMveHQtGlTVyqbRNun9qhdZaF11KNb/LnVzRJtsyLXmYSvK43bHr5xEDwnfv6WLVvs/p944omYNmuebsKg8hCeAwAAAAAAICnUe9r3ug2+ggGgQmH1/q1bt25RuK7PmuYpZA6OfZ3IOvEooFRg7IP9RIfhCA4ZonVLEq6vp/1of9qGQl71NvfirSNqrwJbtdHTsg0bNrSf/Q0BLROkAF7Btu9RrV7QPigvD9X/9ttvt4GuD4EV7j/zzDO2Pv746BW8QSIV2Xei7Qsfo0SUtE5FrrMg9Y4v63GJ1+ZEbnAgdQjPAQBIgp/97Gd2PD0AACqTvtp99dVXuxKQXuecc46ZOXNmuXuaonw0fMZ1113nSicH9bJV71uFheGQPTz0hleedYK0jJb1w2go+I0XovvgMzhkiG4KlIV6a2sccO3HDyuibYV7nieb2rdv3z5Xqhj1hPZDxwSPsQJePxSKPwf+Fa83f7Iks31RKnqd+bHM1YPcH5/q1HNcN1J69+7tSjUD4TkAAEmgPyK6dOniSgAAVA59hf7KK690JSC96tevb4O2Cy64wE1BOtx6662mT58+rnRyUE9aBbC+93AiyrNOFPVC1/AbPkRXoB3khwtRWL5u3bqi4TMUqpbFm2++aYctUX196Kp9Bnuel0S9j8Pt1fo7d+60n9Ub2i8TpHJ5emNH8eOA33nnnfbd0/ZVD38MUyEd7YtSketMN2L0bQWNs65rTNearicNCZOIeG0u67WXSrpZd9VVV7lSzUB4DgAAAAAAgLTx400HH6Loe2orfIxSnnU8P3RK8EGTPjSPN152MLDUeuGhNxIRDGH9uOGJ0pjYClJ9exXC6sGeb7/9ti37sbr1cEltW/SusqZXZKgWUZufffZZO856eFuqW/gBqlHHuCKS1T71/Ffv70SD/opcZ14w/NYNiESHfFGb9C2FYJu1z/Jce0gewnMAAAAAAIAa5NVXXzXTpk1zpfRTj1yFrAoG/bjQCrH1QMrwwxW98qzjad158+bZUNKvqyBb0zQvSAHmvffeG7Mf9UR/+eWXzZo1a+zDMhOh3uaqlx8XfNCgQbauGrNcvdJLo3oonFavZa2vXsnqBa/hUjztQ9vUcdAyetfY5IkML1KSvXv32mFHFNT7bfuXeh6L6iaql6b74Wkquu+gZLRPw0g1b97crptIsJ/s60z0LQZtL2qIoDDtI9hmDQMzZ84cNxeVoVZBQUGh+2zl5eWZnJwcV6p68vPzGSgfAKqR3Nxck52d7UrREu1VAAAAACA+heYK4l588UUzderUSg3QASCZ/Lcgko2e5wAAJMH+/fvNF1984UoAAFQO/XuUqv88AqU5ceKE7bF67NgxNwXp8Nlnn5U6PrNCc3VYueaaa2xwDgDl8emnn9a4vzMIzwEASIJLL73U/Pu//7srAQBQOTp06GAeeOABVwLSa+vWrXbYgjfeeMNNQTr07t3b/PznP3elWITmAJJJY91rWKOahPAcAAAAAACgGiE0B4DkIDwHAAAAAACoBgjNASC5eGAoAKBSVZcHhjZu3NiMHTvWPv0dAIDK0rJlSzNs2DD7IEAg3TZv3myvwVWrVpmuXbu6qUi1rKwsc+GFF5rDhw+XKTD3DwzVeOl33HGHmxqrf//+5tprr3WlWCNGjDCFhTGRktW3b18zYMAAV4qlv5c///xzVyrWvXt3c/PNN7tSrLvvvtt8/PHHrlSsffv2ZuTIka4U67777jPbtm1zpWKtW7c248ePd6VY8+bNM++8844rFdOxnTx5sivFevzxx83atWtdqdg555xj7r//fleK9fTTT5s//vGPrlSsTp065qGHHnKlWM8//7z53e9+50qxHnnkEXPqqae6UrH/+Z//sf/XivLggw+aM88805WK6Wd30aJFrhRr+vTppmHDhq5UbN26dWbBggWuFOuuu+6KzPA2bdpkZs+e7UqxfvrTn5rLLrvMlYrt2LHD3HPPPa4U67bbbjOdOnVypWL79u0zP/vZz1wp1o033mh69erlSsWOHDlifvKTn7hSrO9+97tx/+86atSoyOc96EbWoEGDXCmW/u+oMcTDunTpYm655RZXiqWf248++siVin3729+OW28N5/b++++7UjH9vp44caIrxXr44YfN3/72N1cqtmzZMvuzP3PmTDel6uCBoQAAAAAAAPgaPSxYNy/KQw963bhxY+RLD4CNJ2p5vT755BO3xNcpwItaZ9euXW6Jr9uyZUvkOgpT49m+fXvkOn//+9/dEl/34YcfRq4TFcJ7CjGj1lGd41Fbo9Z577333BJft3v37sh19IpH5y5qeb3iPdRXD5+NWl4vhcpRDh48GLm8XvHCTE2PWl6vqJsroptDUcvrpXpHUTujltdLPzNRSvp50HmIR+cvap2oGz+efmaj1okKxz1dj1HrlOfnQdPj0fai1jl69Khbouag5zkAoFLR8xwAgOSh5zkqEz3PK4d6nqunqnpOqyf0nDlzzIYNG9zc+HzPcwBI1CWXXGK/WULPcwAAAAAAAJxUfvSjH5l3333XLFy40LRp08ZNBQCUF+E5AAAAAABANUKIDgDJQXgOAAAAAABQDRGiA0DFEJ4DAAAAAABUY4ToAFA+hOcAAAAAAAA1QDBEBwCUjvAcAAAAAACgBlGIPm3aNFcCAMRz6qRJk2J+W27atMm0bt3alaqeAwcOmPr167sSAOBkt379etOqVStXinbaaae5T1VXrVq1TNeuXc2FF17opgAAkH7696hTp06mWbNmbgqQPrr+6tata3r27Gnq1avnpiLVdNyvuOIK07JlSzcFAFLjlFNOMVlZWaZ58+ZuStVx7Ngx9ym5ahUUFBS6z1ZeXp7JyclxpaonPz/fZGZmuhIA4GSXm5trsrOzXSlaRkaG+wQAAAAAABDr0KFD7lNyMWwLAAAAAAAAAAAhhOcAAAAAAAAAAIQQngMAAAAAAAAAEEJ4DgBAEnz22Wfm8OHDrgQAQOU4cOCA+eKLL1wJSK8TJ06Y/fv3p+yhbYh28ODBlI31CwBBNfHvDMJzAACSoE2bNuahhx5yJQAAKsfll19ufvnLX7oSkF5bt2419evXN2+88YabgnTo1auXueuuu1wJAFInKyvLzJw505VqBsJzAAAAAAAAAABCCM8BAAAAAAAAAAghPAcAAAAAAAAAIITwHAAAAAAAAACAEMJzAAAAAAAAAABCCM8BAAAAAAAAAAghPAcAAAAAAAAAIITwHAAAAAAAAACAEMJzAAAAAAAAAABCCM8BAAAAoJoYNmyYycrKciUAAABUBOE5AAAAAFQTU6dONddee60rAQAAoCIIzwEASIJx48aZrl27uhIAAEDNU79+fTNlyhRz4YUXuilIh+HDh5t+/fq5EgCkzqhRo0yvXr1cqWaoVVBQUOg+W3l5eSYnJ8eVqp78/HyTmZnpSgCAk11ubq7Jzs52pWgZGRnuEwAAAAAAQKxDhw65T8lFz3MAAABUW0899ZQZOXJk5B/Tq1atsj319uzZ46ZUH+vWrStqc0nHoDw2btxo+vbta99TpbQ6b9q0qdznTevpvOv8J1PwmFdXM2bMsC8AAICagvAcAAAAqEYUPD/66KOuVP0o9B4zZowrVQ3V/ZgDAADUVITnAAAAAAAAAACEEJ4DAJAEBw8eNEeOHHElACcjDbmhoUJq1aplX8EhXfQ+ePBgs3Dhwq/N0zAWfp127dqVOJyJ5mkZv7xewWEw9Hnu3Ll2+5rnhxbRe3Ad9XSOoulDhw41jz32mOnSpUtMXaZOnVq0fnhIlHC9yjI0RyJt8i8/P7x/1dvPU9s//vhjNyeWjkP37t3NihUrTIMGDYqOT0nnLp533nknpt5+W16wviWd16hjrnXD5zFcR718PbVO1FA4/rhJea7P4HHVK3zdlNbG4Hzt+8CBA24OEO3EiRP2Ojl+/LibgnQoKCgwhw8fdiUASJ3PP/+8xv2+ITwHACAJWrVqZebNm+dKAE42Chr79+9vevToYQoLC+1r2LBhZsiQIUUB5b59+8xbb71lQ4qXXnrJ1K1b1waK4teZP3++GTRoUGTQqu3cfvvtdhm//MqVK82UKVNigttFixbZ3yea361bNxt4KsTcvXu3nab3J5544mtBqKi+Tz75pBkxYoRZvXq1ad26tZ2uYLdt27Z2fdVfZs+ebd+1b9V5yZIlRfN37NhRFNqWJNE2qdyrV6+i+m/bts0899xzdp6WmzVrltmwYYOdP3nyZDNu3Dg7L0zHQ9tX0KztqOzPXZMmTYrqoOnBcxdF+3/llVeK6jx69Gh73nxILX57JZ3XeMc8fB51vIN1VP1lwYIFpmnTpqZ58+Zm6dKldpqo7jo2Om6+jWW5PnU8dZ3460blxYsXJ9xGXV/av19f+9Z5AkqydetWc9ZZZ5m//OUvbgrS4aqrrjITJ050JQBInQ4dOiT0N2J1QngOAACAak3BsYJu34PWv9SD2VOw2KxZM3PDDTe4KcZ+1jQFkZ4CxIyMDPt5+/bt5tNPPzWjRo2yZVFIOmDAgJgQ1Dv33HPttrSM16ZNGxsEB3Xu3NmGqaKQ8/XXX7eBstYXvausYLSkcDhI+1BvZFH91Q4F5Nr+q6++aiZMmFAU+mr+2LFjbaAcFRYHJdomBcvt27e3n7WOlt+yZYvdv9oR3L/mTZ8+3X5OhM6dBM+D/+znRQke0+B5K+t5jSd4HkX708vzx0F0zBWGK6z259TXXcezPNenblAE6fiqx77eS2uj6qDzEjxG2p/OIwAAQE1CeA4AAIBqTYGfeuP6Hrb+pXDYU9AYDtn1WdOCFFZ66pH7zDPP2OFDgqG8elmXxPf61bJaV4FmkHon+wBU9VbdFPQH9xEM/hOheqs9YaqLQnQNOxLcvgLbXbt2uaVKV5Y2Bfn2BY+rZGZmuk+l8+sH2+eD6XCA7NWvX9/WM0j71LHQqzznNSxem4NDqQS3qWMuPjTXTQ21QW0pz/Xpb5b4dgS/qVDatet7mwePkdqiNgEAANQkhOcAAACo8dQLOl7IrqExoijQ9MOHhNcJ9jD21JtXgaZCTz98h9YN99IO0vydO3faoD+8D/U49r2Cy0uht9qhYUfC21+3bl1Rb/B4ytOmdPA3Bcrjgw8+KNN5TZQfPzw4lEqwh70P/BWa67iuX7/eDBw40M4rz/Wp7eka0TI6v/4GiUL0sl67AAAANRXhOQAAAGo89TpWoKhwMlHq5atgWwFkInyPYi3vA0p91jbiUc/fhg0b2rqlgnoTqx0KZ8ujPG0KUuiu/YfbV5b6+PWD5y5ej3ZP44OHz5v2qRsAeoZFWc5rIhSGa0gW3QTxNz2iAn6Nb67lNDZ5vXr1ioZ9Kc/1GaSA3YfoGgaoUaNGJbbR90gPzq/IDQkAAICTFeE5AAAAajw/xIUe3uhpvO927drZMDOKxvDWuNZz5861waL4nthRD/OUYGCpZfWwzbffftuWoyhk1VjYelBjcPxx9WLWMCl+v0FRYXI8Cs+1fQ3XEWyn6q92qI6lKWubgvz+g+1TPUoaIkXBroJgv08/3Enw3PnPfl4UHUPfPu3z2WeftT29y3NeEz3mWsbTA0TDw65o39qWHpgaHL+8PNdn+ByqLQrOtd0uXbqU2EZ/3QWPkR6wGq4vAABAdUd4DgAAgBpPYaFCQwWRfvxnBa/z588veqhjmIJNhY/ix6JWsKvQMWooDW1HD8bUdv2y48ePt8NxaKiOeLSt4Hp6qQew9u3D1SAfGGv78YLVINVLPaKD46praBEfopakvG0K0jZ0nP02FNjOmTPHzf069cZu3ry5Xd7XcdmyZfaY+Pqr3aXVXw/AvOaaa+zyo0ePNkuWLLHD1JT1vEppx1z1mDdvnr1J4Oso6gmu5X1ArX0r3G7btq3p0KGDnSbluT5VV81TnbS8H1pH0xNpo95V9usreNe5BgAAqElqFRQUFLrPVl5ensnJyXGlqic/P79MDxACAFRtubm5Jjs725WiRYVDVU3jxo3N2LFjEw4W1FNT4ZCGBxg+fLibCgAAcPLavHmzadmypb3R07VrVzcVqZaVlWW/UaKbdACQSpdccokZMGCAmTlzpptSdUR9IzMZ6HkOAEAaKTSfOHGiueCCC2wPRAAAAAAAUDURngMAkAbh0Pz48eNuDgAAAAAAqIoIzwEASCFCcwAAAAAATk6E5wAApAChOQAAAAAAJzfCcwAAkuCOO+6wD2oiNAcAADVV/fr1zd13323/DkL63HrrraZPnz6uBACpM3LkSHPVVVe5Us1Qq6CgoNB9tvLy8kxOTo4rVT35+fkmMzPTlQAAJ7vc3FyTnZ3tStEyMjLcp6rro48+MnPnzjVz5swpU2D+8MMP23WijB8/3owaNcqVYrVq1SpyP8OHDzc///nPXSlWx44dzd69e12p2D//8z+b+++/35Vi9e7d22zdutWViuk/aI888ogrxdLT19etW+dKxTp16mSefvppV4ql//S99tprrlSsTZs25sUXX3SlWGPHjjX/9V//5UrFGjVqZFauXOlKsaZNm2aeeOIJVypWt25d87//+7+uFEvnVecpyoYNG8xpp53mSsX+8z//09x7772uFOsvf/mLadCggSsVe+6558yECRNcKdaKFStMy5YtXanYK6+8Yn784x+7UqylS5eaK664wpWKvfnmm2bQoEGuFOvxxx83vXr1cqVi7733nunXr58rxZo9e7bp37+/KxX7+OOP7Q2lKJMnTzY//OEPXanY4cOHzaWXXupKscaMGWNuv/12V4r1rW99y3zxxReuVOwHP/iBmTJliivF6tq1q9m1a5crFbv++uvNgw8+6Eqxrr32WrNp0yZXKnb11Veb//iP/3ClWDfeeKNZu3atKxVr3769/f0XZcSIEeb3v/+9KxVr0aKFefnll10plm7aPfvss65UTNearrkoukZ1rYbpmta1HUU/C/qZiKKfIf0shelnTj97UfSzqp/ZMP1s62c8in4n6HdDmH6H6HdJFP3u0e+gsLffftvccMMNrhRrwYIFpm/fvq5UbNu2beaaa65xpVi/+MUvzMCBA12p2L59+0yHDh1cKdZdd91lfvSjH7lSsRMnTpiLL77YlWL9y7/8i7nzzjtdKVa7du3MgQMHXKnYTTfdZGbMmOFKsXr27Gk+/PBDVyp23XXXmYceesiVYn33u98177zzjisV6969u1m0aJErxRo2bJj585//7ErFLrvsMvP888+7Uqyf/OQnZvny5a5UrGnTpuYPf/iDK8WaNGmSeeaZZ1ypWL169cxbb73lSrEeeOAB89hjj7lSrM2bN7tPsbS81oui/Wh/YaqX6hdF7VG7wtR+HYcoOm46fmE6zjreUXR+dJ7CdD51XqPoOtD1ELZjxw5z5ZVXulKs6dOnmyFDhrhSsYMHD5q2bdu6Uiz+9kn+3z4AUFMcOnTIfUouwnMAQKWqLuG5vPHGGzYIX7JkiZtSOv0nTCFjFAVyPXr0cKVYCkAKC2P+CbcUVv7TP/2TK8VSyPnlv/uuVExBS7z/LM+fP9/s2bPHlYrpP3ZRAZH86le/sv+ZDrvoootsmBlF/7F8//33XanYeeedZ3s3RFHY/H//93+uVOyss86y3wSIogAiKshUWBjvP95//OMfzZ/+9CdXiqUA5NRTT3WlYmvWrIkbco4bN86cccYZrlRMId4LL7zgSrEUJEQF7hs3box7vd1yyy3mwgsvdKVi27dvN7/+9a9dKZaCXoUTYZ988kncwEBh87e//W1XKqbwLl7IqkAyKsg8duyYue+++1wplsI9vaJoHa0blpWVFTf0V92iAkaFUFE3A0THQMciTAHn4MGDXSmWjrWOeZh6ZcYLenVOdW7DdA3EC5V07egaCjv99NNtGBVF16iu1bBTTjnF9hyNop8F/UxEUQhcu3ZtVyqmn7mo8FN0QyQqYNTPtn7Go+jmwvnnn+9KxfQ7JF5IdfPNN5tmzZq5UjH9rtLvrCj6HRcV0ut3on43RtH/oy6//HJXKqbfvfodHEVBnW7mhOl3fLywW8Fn1I0u+eUvf2lvRIXpZlpU+CkKRvfv3+9KxXRjSqFglIULF9pvW4Xp/2pDhw51pVi6kRIVSir4i7qBIPo74d1333WlYurh/NOf/tSVYun/tFEheZ06deyNpii6Gblq1SpXihXvJpyW13pRdDM06u8X1Uv1i6L2qF1h69evN7/97W9dKZaC48aNG7tSMR3nqJvFokBbN+PCdD51XqPoOtD1EKbrJt4Nlu985zuRN410feo6jaLrOirYl3T97aObhFGBe7r+9tHvN/2ei1Kev30AoKYgPHcIzwGgeqlO4blXlhBdPX31H18AAAAAAFA+qQrPGfMcAIAkU29XfS1bQyXEGx4DAAAAAABUbYTnAAAkge5yHz161JW+QogOAEi3qH+PgHTRsCoaJkVj9iN99NyPI0eOuBIApE5N/DuD8BwAgCTQ2KH/9m//5kqxCNEBAOmicfvjPTsASLUtW7bYZy1EPU8BqaOHtsZ76DgAJJMeen/PPfe4Us1AeA4AQJoQogMAAAAAcPIgPAcAIM2CIToAAAAAAKiaCM8BAKgkCtGHDx/uSgAAAAAAoCohPAcAAAAAAAAAIITwHAAAAAAAAACAEMJzAAAAAAAAAABCCM8BAAAAAAAAAAghPAcAAAAAAAAAIITwHAAAAAAAAACAEMJzAAAAAAAAAABCCM8BAAAAAAAAAAg5ddKkSdPcZ2vTpk2mdevWrlT1HDhwwNSvX9+VAAAnu/Xr15tWrVq5UrTTTjvNfaq6jhw5Yrp06WIuuugiNwUAgPTTv0edOnUymZmZbgqQXqeeeqrp1auXqVevnpuCVDt69Khp3759qX9TA0BF6fdNVlaWadGihZtSdRw7dsx9Sq5aBQUFhe6zlZeXZ3Jyclyp6snPz+cPQQCoRnJzc012drYrRcvIyHCfAAAAAAAAYh06dMh9Si6GbQEAAAAAAAAAIITwHAAAAAAAAACAEMJzAAAAAAAAAABCCM8BAEiCw4cPm+PHj7sSAACVQw8MTdUDs4DSFBYW2r+JTpw44aYgHfi5B5AuNfH3DeE5AABJ0Lx5czNnzhxXAgCgclx66aXm3nvvdSUgvbZs2WLq1Klj1qxZ46YgHbp3727Gjx/vSgCQOm3btjXTpk1zpZqB8BwAAAAAAAAAgBDCcwAAAAAAAAAAQgjPAQAAAAAAAAAIITwHAAAAAAAAACCE8BwAAAAAAAAAgBDCcwAAAAAAAAAAQgjPAQAAAAAAAAAIITwHAAAAAAAAACCE8BwAAAAAAAAAgBDCcwAAAAAAAAAAQgjPAQAAAAAAAAAIITwHACAJRo8ebbKyslwJAIDK8eMf/9h069bNlYD0Ovvss83EiRNNkyZN3BSkw80332yuueYaVwKA1Bk+fLjp0aOHK9UMtQoKCgrdZysvL8/k5OS4UtWTn59vMjMzXQkAcLLLzc012dnZrhQtIyPDfQIAAAAAAIh16NAh9ym56HkOAAAAAAAAAEAI4TkAAAAAAAAAACGE5wAAAAAAAAAAhBCeAwCQBMeOHTMnTpxwJQAAKgf/HqEyFRYWmqNHj9p3pI9+7o8fP+5KAJA6NfHvDMJzAACSoGnTpubBBx90JQAAKkebNm3MjBkzXAlIry1btpjatWub1atXuylIh65du5px48a5EgCkzmWXXWamTJniSjUD4TkAAAAAAAAAACGE5wAAAAAAAAAAhBCeAwAAAAAAAAAQQngOAAAAAAAAAEAI4TkAAAAAAAAAACGE5wAAAAAAAAAAhBCeAwAAAAAAAAAQQngOAAAAAAAAAEAI4TkAAAAAAAAAACGE5wAAAAAAAAAAhBCeAwAAAAAAAAAQQngOAEASjBw50nTs2NGVAACoHMOHDzddunRxJSC9zj77bHPnnXeaxo0buylIh6FDh5pevXq5EgCkzi233GK6d+/uSjVDrYKCgkL32crLyzM5OTmuVPXk5+ebzMxMVwIAnOxyc3NNdna2K0XLyMhwnwAAAAAAAGIdOnTIfUouep4DAAAAAAAAABBCeA4AAAAAAAAAQAjDtgAAKlUiw7YAAAAAAACkGz3PAQAAAAAAAAAIITwHAAAAAAAAACCE8BwAAAAAAAAAgBDCcwAAAAAAAAAAQgjPAQAAAAAAAAAIITwHAAAAAAAAACCE8BwAAAAAAAAAgBDCcwAAAAAAAAAAQgjPAQAAAAAAAAAIITwHAAAAAAAAACCE8BwAAAAAAAAAgBDCcwAAAAAAAAAAQgjPAQAAAAAAAAAIITwHAAAAAAAAACCE8BwAAAAAAAAAgBDCcwAAAAAAAAAAQgjPAQAAAAAAAAAIITwHAAAAAAAAACCE8BwAAAAAAAAAgBDCcwAAAAAAAAAAQgjPAQAAAAAAAAAIITwHAAAAAAAAACCE8BwAAAAAAAAAgBDCcwAAAAAAAAAAQgjPAQAAAAAAAAAIITwHAAAAAAAAACCE8BwAAAAAAAAAgBjG/H8RN8FwrBQxFAAAAABJRU5ErkJggg==;" vertex="1" parent="1">
                    <mxGeometry x="40" y="110" width="1096.53" height="410" as="geometry"/>
                </mxCell>
            </root>
        </mxGraphModel>
    </diagram>
</mxfile>